<svg width="147" height="150" viewBox="0 0 147 150" xmlns="http://www.w3.org/2000/svg">
<path d="M80 0L0 38L5 123L66 150L147 99L134 25L80 0Z" fill="inherit"/>
<path d="M104.244 42.2114C103.402 42.3518 102.84 42.6326 102.279 43.0537C101.296 43.7557 100.594 44.3172 99.8922 44.8787C99.1903 45.5807 98.6288 46.1422 98.348 46.5633C97.9269 46.2826 97.5057 46.1422 96.9442 46.1422C95.3999 45.8614 93.8557 46.5633 92.7326 47.4057C92.1711 47.8268 91.7499 48.248 91.3288 48.6691C90.4865 48.3883 89.6442 48.1076 88.6615 48.248C87.398 48.3884 86.4153 48.9499 85.573 49.6518C84.8711 50.3537 84.1692 51.0557 83.6076 51.6172C83.0461 52.0384 82.3442 52.4595 81.7826 52.3191C81.2211 52.3191 80.7999 51.898 80.6595 51.3364C80.5192 50.7749 80.6595 49.7922 80.6595 48.9499C80.7999 48.1076 80.7999 46.9845 80.3788 46.0018C79.9576 45.0191 79.2557 44.1768 78.273 43.6153C77.4307 43.0537 76.448 42.773 75.6057 42.6326C74.7634 42.4922 73.7807 42.4922 72.9384 42.4922C71.1134 42.4922 69.148 43.0537 67.8845 44.598C67.1826 45.4403 67.0422 46.423 66.7615 47.1249C66.6211 47.9672 66.4807 48.8095 66.3403 49.5114C66.1999 51.0557 65.7788 52.5999 65.0769 53.021C64.6557 53.3018 64.0942 53.1614 63.5326 53.1614C62.9711 53.021 62.5499 52.7403 61.9884 52.1787C61.0057 51.196 60.3038 49.9326 59.4615 48.8095C58.8999 48.248 58.4788 47.6864 57.6365 47.4057C56.9345 46.9845 56.0922 46.8441 55.3903 46.8441C54.548 46.8441 53.8461 47.2653 53.2845 47.546C52.723 47.9672 52.1615 48.248 51.5999 48.6691C51.0384 49.6518 50.0557 50.4941 49.3538 51.4768C48.9326 51.898 48.6519 52.4595 48.3711 53.021C48.2307 53.3018 48.0903 53.5826 47.9499 53.8634C47.9499 54.1441 47.8095 54.5653 47.8095 54.846C47.8095 55.548 47.9499 56.2499 48.3711 56.671C48.7922 57.2326 49.2134 57.5134 49.6345 57.7941C50.4769 58.3557 51.4595 58.7768 52.1615 59.198C53.0038 59.6191 53.7057 60.1807 53.9865 60.7422C54.4076 61.3037 54.4076 62.146 54.2672 62.7076C53.7057 64.1114 50.1961 63.8307 47.8095 64.2518C46.9672 64.3922 46.4057 64.673 45.9845 64.8134C45.7038 65.0941 45.5634 65.2345 45.5634 65.2345C45.5634 65.2345 45.7038 65.0941 46.1249 64.9537C46.5461 64.8134 47.1076 64.673 47.9499 64.5326C48.9326 64.673 49.9153 64.673 51.0384 64.673C51.5999 64.673 52.3019 64.673 53.0038 64.3922C53.7057 64.2518 54.548 63.971 55.1095 63.1287C55.5307 62.2864 55.3903 61.1634 54.9692 60.321C53.9865 58.7768 51.8807 57.9345 50.3365 56.9518C49.4942 56.3903 48.9326 55.6884 48.9326 54.846C48.9326 54.0037 49.6345 53.021 50.3365 52.1787C51.0384 51.3364 51.8807 50.4941 52.8634 49.7922C53.2845 49.371 53.8461 49.0903 54.2672 48.8095C54.8288 48.5287 55.2499 48.248 55.8115 48.248C56.9345 48.248 57.9172 48.8095 58.7595 49.7922C59.6019 50.7749 60.3038 52.0384 61.2865 53.1614C61.848 53.723 62.5499 54.2845 63.3922 54.5653C63.8134 54.7057 64.2345 54.7057 64.6557 54.7057L65.3576 54.5653C65.6384 54.4249 65.7788 54.4249 66.0595 54.2845C67.323 53.5826 67.7442 52.0384 68.0249 50.6345C68.3057 50.7749 68.5865 50.7749 69.0076 50.7749C69.9903 50.7749 70.8326 50.073 70.6922 49.5114C70.5519 48.9499 69.8499 48.6691 68.8672 48.6691C68.5865 48.6691 68.4461 48.6691 68.3057 48.8095C68.4461 48.248 68.4461 47.8268 68.5865 47.2653C68.7269 46.5633 69.0076 45.8614 69.2884 45.4403C70.1307 44.4576 71.6749 44.0364 73.2192 43.896C74.7634 43.896 76.448 44.0364 77.7115 44.7383C78.273 45.1595 78.8345 45.5807 78.9749 46.2826C79.1153 46.9845 79.1153 47.6864 79.1153 48.5287C79.1153 49.371 78.8345 50.3537 79.1153 51.4768C79.2557 52.7403 80.5192 53.8634 81.7826 53.8634C83.0461 53.8634 84.0288 53.4422 85.0115 52.7403C85.8538 52.0384 86.4153 51.3364 86.9768 50.7749C87.5384 50.2134 88.2403 49.9326 88.9422 49.7922H89.7845C89.6442 49.9326 89.6442 49.9326 89.5038 50.073C82.2038 57.0922 85.4326 54.0037 76.8692 62.146C76.0269 61.8653 75.1845 61.7249 74.4826 61.5845C70.973 61.023 68.1653 61.5845 66.3403 62.2864C64.5153 62.9884 63.8134 63.8307 63.8134 63.8307C63.9538 63.971 64.7961 63.4095 66.6211 62.9884C68.3057 62.5672 71.1134 62.146 74.2019 62.9884C74.623 63.1287 75.1845 63.2691 75.6057 63.4095C75.1845 63.8307 72.798 66.0768 70.973 67.9018C69.7095 69.1653 68.1653 70.4287 66.7615 71.6922C65.2172 72.9557 63.8134 74.2191 62.4095 75.623C61.848 76.1845 61.2865 76.746 60.8653 77.5884C60.1634 76.1845 59.8826 74.6403 59.7422 73.3768C59.6019 71.8326 59.8826 70.4287 60.3038 69.1653C60.7249 67.9018 61.2865 67.0595 61.848 66.3576C62.9711 64.9537 63.8134 64.3922 63.8134 64.2518C63.8134 64.1114 62.6903 64.5326 61.2865 65.9364C60.8653 66.6384 60.023 67.4807 59.4615 68.8845C58.0576 72.1134 58.3384 75.9037 59.8826 79.1326C60.1634 79.6941 60.4442 80.2557 60.8653 80.8172C61.0057 81.2384 61.1461 81.5191 61.2865 81.9403C62.5499 83.7653 64.2345 84.8884 66.0595 85.4499C66.3403 85.5903 66.4807 85.5903 66.9019 85.5903H67.4634C71.1134 86.573 75.4653 86.0114 78.9749 83.4845C81.2211 81.9403 82.9057 79.5537 83.6076 77.0268C84.0288 75.3422 84.1692 73.6576 84.0288 72.1134C86.1345 70.2884 86.1345 70.2884 90.7672 65.6557C91.4692 66.2172 92.1711 66.3576 92.7326 66.3576H94.4172C95.3999 66.2172 96.1019 66.3576 96.9442 66.7787C100.033 68.323 101.436 73.096 99.6115 76.1845C99.4711 76.4653 99.1903 76.746 99.0499 77.0268C98.9095 75.7634 98.348 74.921 97.9269 75.0614C97.3653 75.2018 97.2249 76.3249 97.0845 77.448V77.8691C96.523 77.8691 95.9615 77.7287 95.2595 77.7287C95.1192 77.7287 94.9788 77.7287 94.8384 77.7287C95.1192 77.448 95.2595 77.0268 95.2595 76.4653C95.2595 75.623 94.8384 74.921 94.2769 74.921C93.7153 74.921 93.2942 75.623 93.2942 76.4653C93.2942 76.8864 93.4345 77.3076 93.5749 77.5884C93.0134 77.5884 92.3115 77.5884 91.6095 78.0095C90.9076 78.4307 90.3461 79.1326 90.2057 79.8345C90.0653 80.6768 90.3461 81.3787 90.6269 81.9403C90.9076 82.5018 91.3288 83.0634 91.7499 83.4845C92.3115 83.9057 92.7326 84.1864 93.1538 84.4672C93.9961 85.0287 94.8384 85.4499 95.3999 86.0114C95.8211 86.573 95.9615 87.2749 95.9615 88.1172C95.8211 88.9595 95.3999 89.6614 94.8384 90.223C94.2769 90.9249 93.5749 91.4864 92.7326 91.9076C91.8903 92.4691 91.1884 92.8903 90.4865 92.8903C89.7845 92.8903 89.0826 92.7499 88.3807 92.1884C87.6788 91.7672 86.9769 91.0653 86.1345 90.5037C85.2922 89.9422 84.3095 89.2403 83.1865 89.0999C82.6249 88.9595 82.0634 88.9595 81.3615 89.0999C80.7999 89.2403 80.098 89.6614 79.6769 90.0826C79.1153 90.7845 78.8345 91.4864 78.8345 92.3287C78.5538 92.3287 78.273 92.3287 77.8519 92.3287C76.8692 92.4691 76.0269 92.7499 75.8865 93.3114C75.7461 93.873 76.7288 94.5749 77.9922 94.2941C78.1326 94.2941 78.4134 94.2941 78.5538 94.1537V95.2768C78.273 95.2768 77.9922 95.2768 77.5711 95.2768C76.5884 95.4172 75.6057 95.5576 75.4653 96.1191C75.3249 96.6807 76.3076 97.3826 77.8519 97.2422C78.1326 97.2422 78.273 97.1018 78.5538 97.1018C78.5538 97.523 78.4134 97.9441 78.4134 98.0845C78.273 98.3653 77.5711 98.5057 76.5884 98.6461C74.9038 98.9268 73.2192 98.9268 71.5345 98.9268C70.6922 98.9268 69.9903 98.7864 69.4288 98.5057C68.8672 98.2249 68.4461 97.8037 68.1653 97.1018C68.0249 96.821 67.8845 96.3999 67.7442 96.1191C67.6038 95.9787 67.6038 95.698 67.6038 95.5576C67.6038 95.4172 67.6038 95.1364 67.6038 94.996C67.6038 94.1537 67.6038 93.3114 67.4634 92.4691C67.323 91.6268 67.323 90.6441 66.4807 89.8018C65.6384 88.9595 64.2345 88.8191 63.2519 89.3807C62.2692 89.9422 61.9884 90.6441 61.4269 91.3461C61.0057 91.9076 60.5845 92.4691 60.1634 92.7499C59.1807 93.3114 57.6365 93.3114 56.5134 92.8903C55.2499 92.4691 54.2672 91.6268 53.1442 90.7845C52.0211 89.9422 51.0384 89.0999 50.898 88.1172C50.7576 87.1345 51.3192 86.0114 52.0211 85.1691C52.723 84.1864 53.7057 83.3441 54.1269 82.0807C54.4076 81.5191 54.548 80.8172 54.6884 80.2557C54.6884 79.5537 54.548 78.8518 54.1269 78.2903C53.7057 77.7287 53.1442 77.3076 52.5826 77.1672C52.1615 77.0268 51.7403 77.0268 51.3192 76.8864C51.4595 76.4653 51.4595 76.1845 51.4595 75.623C51.4595 74.4999 51.0384 73.6576 50.4769 73.5172C49.9153 73.3768 49.3538 74.3595 49.3538 75.623C49.3538 76.0441 49.4942 76.3249 49.6345 76.6057C49.073 76.6057 48.5115 76.6057 47.9499 76.6057C47.8095 76.6057 47.8095 76.6057 47.6692 76.6057C47.8095 76.1845 47.9499 75.4826 47.9499 74.7807C47.9499 73.5172 47.8095 72.5345 47.248 72.2537C46.6865 72.1134 45.9845 73.096 45.9845 74.6403C45.9845 75.2018 46.1249 75.7634 46.2653 76.1845C45.423 75.7634 44.8615 74.921 44.5807 74.0787C44.0192 72.9557 44.0192 71.6922 44.0192 70.4287C44.0192 69.3057 44.2999 68.323 44.5807 67.621C45.1422 66.0768 45.8442 65.5153 45.7038 65.5153C45.7038 65.5153 45.423 65.6557 45.1422 65.9364C44.8615 66.2172 44.4403 66.7787 44.1595 67.4807C43.8788 68.1826 43.4576 69.3057 43.3172 70.4287C43.1769 71.5518 43.1769 73.096 43.598 74.6403C43.8788 75.4826 44.2999 76.1845 45.0019 76.8864C45.7038 77.5884 46.8269 77.7287 47.6692 77.8691C48.6519 78.0095 49.6345 78.0095 50.6172 78.0095C51.5999 78.1499 52.5826 78.2903 53.0038 78.9922C53.5653 79.6941 53.4249 80.6768 53.0038 81.6595C52.5826 82.6422 51.7403 83.4845 50.898 84.4672C50.4769 85.0287 50.0557 85.5903 49.7749 86.1518C49.4942 86.8537 49.2134 87.5557 49.3538 88.398C49.3538 88.8191 49.4942 89.2403 49.6345 89.521C48.2307 90.7845 45.423 93.5922 44.0192 95.2768C43.598 95.698 43.1769 96.2595 42.8961 96.8211C42.6153 97.3826 42.3345 98.0845 42.0538 98.6461C41.773 99.2076 41.6326 99.9095 41.3519 100.471C41.0711 101.173 40.9307 101.454 40.5095 102.156C40.3692 102.436 40.2288 102.858 39.948 103.138C39.8076 103.56 39.6672 103.84 39.5269 104.542C39.5269 105.244 39.8076 105.946 40.5095 106.367C41.0711 106.648 41.3519 106.788 41.773 106.788H42.4749C43.3172 106.648 44.0192 106.367 44.7211 105.946C45.423 105.665 46.1249 105.385 46.6865 105.104C47.9499 104.542 49.2134 103.84 50.3365 103.138C52.5826 101.735 54.2672 100.05 55.6711 98.6461C57.4961 96.8211 58.7595 95.5576 59.4615 94.7153C60.023 94.5749 60.4442 94.4345 60.8653 94.1537C61.7076 93.7326 62.2692 92.8903 62.6903 92.3287C63.1115 91.7672 63.5326 91.0653 63.9538 90.7845C64.3749 90.5037 64.7961 90.6441 65.0769 90.9249C65.3576 91.2057 65.498 91.9076 65.6384 92.7499C65.7788 93.4518 65.6384 94.2941 65.7788 95.1364V95.8384C65.7788 96.1191 65.9192 96.3999 65.9192 96.5403C66.0595 96.9614 66.1999 97.3826 66.3403 97.8037C66.7615 98.646 67.4634 99.6287 68.4461 100.05C69.4288 100.471 70.4115 100.611 71.2538 100.752C73.0788 100.892 74.9038 100.752 76.7288 100.471C77.1499 100.331 77.5711 100.331 78.1326 100.19C78.6942 100.05 79.3961 99.7691 79.6769 99.0672C80.098 98.5057 80.098 97.8037 80.2384 97.3826C80.2384 96.821 80.2384 96.3999 80.2384 95.9787C80.2384 94.996 80.2384 94.1537 80.2384 93.3114C80.2384 92.4691 80.5192 91.6268 80.7999 91.2057C81.0807 90.7845 81.7826 90.6441 82.4845 90.7845C83.1865 90.9249 83.8884 91.3461 84.5903 91.9076C85.2922 92.4691 85.9942 93.1711 86.9768 93.7326C87.8192 94.2941 88.9422 94.8557 90.3461 94.7153C91.6095 94.5749 92.5922 94.0134 93.4345 93.4518C94.2769 92.8903 95.1192 92.1884 95.9615 91.3461C96.8038 90.5037 97.3653 89.3807 97.5057 88.2576C97.6461 87.1345 97.5057 85.5903 96.523 84.6076C95.6807 83.6249 94.698 83.0634 93.8557 82.6422C93.4345 82.3614 93.0134 82.221 92.7326 81.9403C92.4519 81.6595 92.1711 81.3787 92.0307 81.098C91.6095 80.396 91.7499 79.9749 92.3115 79.6941C92.7326 79.4134 93.7153 79.5537 94.698 79.6941C95.3999 79.8345 96.2422 79.9749 97.0845 79.8345C97.2249 79.9749 97.5057 79.8345 97.7865 79.6941C97.9268 79.6941 98.0672 79.6941 98.2076 79.5537C99.4711 79.1326 100.454 78.1499 101.015 77.0268C102.279 74.921 102.279 72.3941 101.577 70.148C100.875 67.9018 99.6115 65.9364 97.3653 64.8134C96.2422 64.2518 94.9788 64.1114 93.8557 64.2518C93.0134 64.3922 92.1711 64.3922 91.7499 64.1114C92.1711 63.6903 92.5922 63.2691 93.0134 62.848C94.4172 61.4441 97.0845 58.6364 95.3999 59.7595C95.5403 59.3384 95.3999 58.7768 95.1192 58.3557C94.698 57.9345 94.1365 57.6537 93.5749 57.9345C93.1538 58.2153 93.0134 59.0576 93.5749 59.6191C93.9961 60.0403 94.4172 60.1807 94.698 60.0403C93.8557 60.7422 92.7326 61.7249 91.8903 62.4268C91.6095 61.3037 89.5038 59.8999 88.6615 60.6018C88.2403 61.023 88.6615 62.0057 89.5038 62.7076C89.9249 62.9884 90.4865 63.2691 90.9076 63.2691C90.2057 63.971 88.9422 64.9537 88.0999 65.796C87.9595 65.5153 87.6788 65.0941 87.398 64.8134C86.6961 63.971 85.9942 63.4095 85.4326 63.6903C84.8711 63.971 85.0115 65.0941 85.8538 66.0768C86.1345 66.498 86.5557 66.7787 86.9768 66.9191C85.8538 67.9018 84.7307 69.0249 83.3269 70.148C79.3961 73.3768 74.9038 77.3076 69.8499 81.7999C69.2884 82.3614 68.7269 82.7826 68.0249 83.2037C67.7442 83.3441 67.4634 83.4845 67.1826 83.4845C66.3403 83.2037 65.498 82.923 64.7961 82.3614C63.9538 81.7999 63.1115 81.098 62.4095 80.396C62.1288 79.8345 61.9884 79.273 62.1288 78.8518C62.2692 78.2903 62.8307 77.5884 63.3922 77.0268C64.7961 75.7634 66.1999 74.4999 67.6038 73.2364C69.0076 71.973 70.5519 70.7095 71.9557 69.3057C76.0269 65.3749 83.3269 58.0749 90.2057 51.196C91.3288 50.2133 92.3115 49.0903 93.2942 48.248C94.8384 47.8268 95.9615 47.2653 96.9442 47.4057C98.9095 47.6864 100.454 49.6518 100.594 51.6172C100.735 53.4422 99.7519 54.9864 99.0499 56.1095C97.3653 58.3557 96.2422 59.4787 96.3826 59.6191C96.3826 59.6191 97.7865 58.7768 99.6115 56.671C100.033 56.1095 100.594 55.4076 101.015 54.5653C101.436 53.723 101.717 52.7403 101.717 51.6172C101.717 51.4768 101.717 51.196 101.717 51.0557C102.138 50.9153 102.84 50.4941 103.683 49.6518C104.806 48.5287 105.929 47.2653 106.771 46.1422C106.911 45.8614 107.192 45.4403 107.333 45.0191C107.473 44.4576 107.333 43.7557 106.911 43.3345C106.069 42.3518 105.086 42.2114 104.244 42.2114ZM45.8442 103.279C45.1422 103.56 44.5807 103.84 43.8788 104.121C43.3172 104.402 42.6153 104.683 42.0538 104.823C41.9134 104.823 41.773 104.823 41.6326 104.823C41.6326 104.683 41.773 104.402 41.773 104.121C41.9134 103.84 42.0538 103.56 42.1942 103.279C42.4749 102.717 42.8961 101.875 43.0365 101.313C43.1769 100.611 43.4576 100.05 43.598 99.4884C43.7384 98.9268 44.0192 98.3653 44.1595 97.8037C44.1595 97.6634 44.2999 97.6634 44.2999 97.523C44.7211 98.2249 45.5634 99.0672 46.5461 100.05C47.248 100.752 48.0903 101.313 48.7922 101.735C48.0903 102.296 46.9672 102.717 45.8442 103.279ZM54.6884 97.523C53.4249 98.5057 52.0211 99.6287 50.4769 100.752L50.3365 100.611C49.7749 100.19 49.073 99.4884 48.2307 98.5057C47.1076 97.523 46.1249 96.6807 45.423 96.2595C46.8269 94.4345 49.073 91.7672 50.4769 90.0826C51.0384 90.7845 51.7403 91.3461 52.4422 91.9076C53.5653 92.7499 54.6884 93.7326 56.2326 94.2941C56.9345 94.5749 57.7769 94.7153 58.4788 94.7153C57.4961 95.4172 56.2326 96.3999 54.6884 97.523ZM82.2038 73.9384C82.2038 74.7807 82.0634 75.7634 81.7826 76.6057C81.2211 78.7114 79.8172 80.6768 77.8519 82.0807C75.7461 83.6249 73.2192 84.3268 70.6922 84.3268C70.973 84.046 71.3942 83.7653 71.5345 83.4845C75.4653 79.8345 78.9749 76.746 82.2038 73.9384ZM105.227 44.4576C105.227 44.598 105.086 44.7383 105.086 44.8787C103.963 46.5633 104.525 45.721 102.56 48.5287C102.138 49.2307 101.717 49.7922 101.436 50.073C101.015 48.6691 100.313 47.546 99.1903 46.7037C99.6115 46.7037 100.173 46.423 100.875 46.0018C101.577 45.5807 102.419 45.1595 103.261 44.598C103.683 44.3172 104.104 44.1768 104.525 44.1768C104.806 44.1768 105.227 44.3172 105.227 44.4576Z" fill="#747776"/>
</svg>
