<svg width="150" height="150" viewBox="0 0 150 150" xmlns="http://www.w3.org/2000/svg">
<path d="M119 0L4 18.2143L10 78.2143L0 110.357L87 150L150 106.071L119 0Z" fill="iherit"/>
<g clip-path="url(#clip0_435:17)">
<path d="M111.667 52.0801C111.236 50.6445 110.67 49.2215 109.958 47.9014C108.654 45.482 106.823 42.9175 104.42 41.4967C101.849 39.9767 99.2729 38.5917 96.2633 38.2284C93.2738 37.8674 90.3175 37.5982 87.289 37.6866C84.0561 37.7809 80.8511 38.518 77.6873 39.1301C74.6325 39.7211 71.5521 40.7603 68.6868 41.9634C67.2218 42.5785 65.7011 43.051 64.2352 43.6647C62.7691 44.2783 61.3719 45.0331 59.9744 45.7867C57.3976 47.1758 54.9826 49.002 52.7406 50.8703C50.4657 52.7658 48.3568 55.0867 46.5581 57.4349C45.603 58.6819 44.724 59.9921 43.8407 61.2904C42.9924 62.5374 42.4322 63.9254 41.781 65.2782C41.1528 66.5835 40.4951 67.9352 40.0263 69.3053C39.7999 69.9671 39.7122 70.6385 39.5481 71.314C39.3743 72.0286 39.1845 72.7081 39.1385 73.4464C39.0385 75.0528 38.9672 76.6423 39.0154 78.2527C39.063 79.8395 39.3994 81.2845 39.7566 82.8217C40.1101 84.3441 40.5611 85.7641 41.0951 87.2322C41.303 87.8041 41.428 88.4302 41.6973 88.9758C41.8279 89.2403 42.0099 89.4636 42.1763 89.7044C42.4032 90.0328 42.4681 90.345 42.5933 90.7104C42.7624 91.2035 43.1013 91.6349 43.323 92.1091C43.4704 92.4242 43.6139 92.7335 43.8124 93.005C44.0373 93.5028 44.2746 93.9953 44.5158 94.4846C44.9627 95.3917 45.6808 96.2184 46.2676 97.0421C46.969 98.0273 47.6118 98.9432 48.4921 99.7849C49.3524 100.607 50.1781 101.465 51.1074 102.212C52.0106 102.937 52.9115 103.838 53.9057 104.428C54.8669 105 55.7672 105.671 56.7967 106.143C57.7807 106.593 58.734 106.965 59.7624 107.327C64.6032 109.029 69.6959 109.325 74.7786 109.33C76.0177 109.332 77.2169 109.308 78.4486 109.195C79.0761 109.137 79.7038 109.09 80.3312 109.028C81.0126 108.961 81.6518 108.765 82.3228 108.675C82.897 108.598 83.3924 108.626 83.9535 108.431C84.5316 108.229 85.1091 108.007 85.6792 107.782C86.8665 107.314 88.0892 106.988 89.2798 106.54C90.5309 106.069 91.589 105.258 92.7574 104.624C93.3423 104.306 93.793 103.941 94.2544 103.468C94.6204 103.092 95.052 102.871 95.4423 102.522C96.4012 101.665 97.3901 100.801 98.3291 99.9101C98.4989 99.9634 98.6844 99.951 98.8494 99.8322C101.216 98.125 102.781 95.5533 103.471 92.7402C103.648 92.0186 103.711 91.3183 103.698 90.5776C103.685 89.8688 103.78 89.1312 103.652 88.4309C103.401 87.0494 102.37 85.7103 101.462 84.6849C100.458 83.5501 99.34 82.5889 97.9467 81.9639C96.573 81.3478 95.166 80.9003 93.7649 80.3775C93.1243 80.1383 93.0454 79.9852 92.7262 79.4275C92.3364 78.7461 92.0411 78.2238 92.0375 77.4098C92.0318 76.0874 92.5678 74.5785 93.1159 73.3832C94.3567 70.6774 96.8641 68.311 99.5388 67.0744C100.165 66.785 100.778 66.6189 101.328 66.1832C101.912 65.7203 102.476 65.361 103.134 65.0109C104.416 64.3286 105.684 63.4237 106.832 62.5334C108.941 60.8967 111.283 59.2173 111.786 56.4352C112.062 54.909 112.119 53.5832 111.667 52.0801ZM108.92 58.0534C108.144 59.1286 107.123 60.0119 106.081 60.8222C104.98 61.6777 103.819 62.5356 102.626 63.2573C102.074 63.5911 101.483 63.8457 100.958 64.2254C100.391 64.636 99.9568 65.0311 99.291 65.2976C96.8084 66.2918 94.6457 68.1073 93.0807 70.2643C91.806 72.0212 90.6326 74.2858 90.3966 76.5345C90.1661 75.7508 90.0493 74.9268 90.0825 74.153C90.1117 73.4759 90.1437 72.8276 90.2141 72.1849C90.2979 71.8507 90.3962 71.5303 90.5052 71.1918C90.7732 70.3609 90.9743 69.4883 91.2901 68.6761C91.5836 67.9215 92.1945 67.1226 92.675 66.4659C92.6756 66.4652 92.6762 66.4646 92.6766 66.4639C94.2869 64.8845 96.4636 63.6815 98.4821 62.6336C98.8262 62.5038 99.1658 62.3663 99.4876 62.1938C99.5818 62.1433 99.6742 62.0903 99.7656 62.0361C100.121 61.9005 100.48 61.7725 100.822 61.5975C101.371 61.3161 101.897 60.9954 102.433 60.6913C103.607 60.0242 104.715 59.5608 105.654 58.5395C105.709 58.4792 105.627 58.4009 105.565 58.4511C105.167 58.7757 104.727 59.0381 104.303 59.3251C104.302 59.3049 104.3 59.284 104.295 59.2627C104.287 59.22 104.279 59.1772 104.27 59.1346C104.223 58.8967 103.926 58.8972 103.793 59.0504C103.402 59.1376 103.133 59.3779 102.784 59.6084C102.683 59.6751 102.571 59.7938 102.463 59.8398C102.237 59.9361 101.937 59.7835 101.697 59.7722C101.508 59.7635 101.511 60.0504 101.697 60.0641C101.833 60.0741 101.954 60.1064 102.071 60.1418C101.997 60.18 101.93 60.2152 101.88 60.2433C101.434 60.4962 100.931 60.5788 100.459 60.7636C99.6514 61.0797 98.9227 61.514 98.0999 61.8048C96.3275 62.4309 94.6514 63.3753 93.1897 64.5553C92.5728 65.0534 92.0592 65.6344 91.6125 66.2881C91.1393 66.9803 90.5919 67.6989 90.3294 68.5003C90.0377 69.3902 89.776 70.3167 89.5366 71.2227C89.477 71.4482 89.4408 71.6761 89.4187 71.9054C89.3151 72.344 89.2176 72.7837 89.1147 73.2196C88.8203 74.4654 88.559 75.5425 88.9762 76.8078C89.2585 77.6646 89.5658 78.7355 90.2533 79.3535C90.4652 79.7846 90.8319 79.9895 91.2055 80.2478C91.2974 80.4248 91.3921 80.6024 91.4872 80.7828C92.016 81.7847 93.1605 82.1105 94.1343 82.531C94.7705 82.8057 95.3546 83.1813 95.9928 83.4562C96.654 83.7409 97.3239 84.0136 97.9306 84.4055C98.4841 84.7632 99.0255 85.221 99.5112 85.7327C99.5316 85.9895 99.5503 86.2382 99.5774 86.4686C99.6621 87.191 99.7973 87.9075 99.8476 88.6339C99.9021 89.4182 99.7177 90.1039 99.6548 90.8703C99.5921 91.6358 99.5579 92.1858 99.2559 92.921C98.9733 93.6086 98.7024 94.2319 98.2002 94.7922C97.237 95.8674 95.9987 96.7638 94.7401 97.4651C94.162 97.7873 93.5134 97.9102 92.9037 98.1561C92.0886 98.4847 91.3024 98.8835 90.4857 99.2113C89.0294 99.7957 87.5048 100.212 86.0217 100.725C84.7582 101.163 83.3178 101.279 82.1092 101.834C80.8931 102.393 79.5037 102.498 78.1978 102.807C77.4439 102.985 76.7129 103.126 75.9417 103.222C75.0444 103.333 74.154 103.166 73.2569 103.222C72.8384 103.248 72.4272 103.371 72.0083 103.372C71.6259 103.373 71.2678 103.246 70.8911 103.199C70.1192 103.103 69.3113 103.303 68.5596 103.471C68.362 103.516 68.3597 103.83 68.5596 103.873C69.3515 104.043 70.1477 104.102 70.9467 104.214C71.754 104.327 72.3574 104.261 73.1647 104.16C74.7389 103.963 76.3279 104.218 77.8836 103.766C78.5764 103.564 79.2829 103.449 79.9802 103.264C80.6995 103.073 81.4329 103.051 82.1099 102.743C83.5979 102.065 85.274 101.794 86.825 101.232C88.4464 100.644 90.0893 100.169 91.6693 99.4682C93.1448 98.8133 94.6758 98.3614 96.0278 97.4677C96.7187 97.0107 97.3446 96.4685 98.0664 96.0603C98.6441 95.7335 99.2214 95.345 99.6463 94.8278C100.038 94.3512 100.28 93.7649 100.512 93.1989C100.831 92.4232 100.842 91.8094 100.9 91.0037C100.968 90.0664 101.16 89.2644 101.058 88.2991C101.041 88.1432 101.022 87.9866 101.004 87.8301C101.267 88.3029 101.495 88.7638 101.502 89.3284C101.51 90.055 101.589 90.8265 101.51 91.5482C101.362 92.8865 100.839 94.2491 100.122 95.3763C99.8285 95.8387 99.5406 96.3102 99.2508 96.781C99.0453 96.9957 98.8648 97.2404 98.7117 97.4346C98.0013 98.336 96.8514 98.9804 95.9314 99.6691C95.4744 100.011 95.0251 100.364 94.5916 100.735C94.1604 101.104 93.7 101.318 93.2545 101.654C92.8759 101.939 92.5805 102.289 92.1704 102.538C91.6644 102.844 91.1082 103.057 90.6005 103.361C89.5537 103.988 88.6276 104.492 87.4474 104.846C86.254 105.204 85.1075 105.707 83.9429 106.148C82.9667 106.518 81.9517 106.637 80.9228 106.839C79.726 107.074 78.4166 107.172 77.1998 107.244C74.6242 107.396 71.9838 107.299 69.4173 107.118C68.9362 107.084 68.5114 107.078 68.0357 106.998C67.5191 106.912 67.0156 107.001 66.5038 106.931C65.2598 106.762 63.992 106.49 62.7701 106.199C60.6124 105.686 58.2306 105.033 56.3295 103.859C54.4041 102.67 52.4331 101.396 50.752 99.8486C49.8593 99.0271 48.8264 98.2817 48.0944 97.3057C47.378 96.3504 46.643 95.4204 45.9123 94.4822C45.0986 93.4373 44.4431 92.0803 43.9113 90.8745C43.3919 89.6967 43.1027 88.4102 42.4941 87.275C42.3884 86.8915 42.2806 86.5086 42.1611 86.1279C41.2767 83.3124 40.5799 80.4088 40.6008 77.4473C40.6095 76.2003 40.6066 74.8886 40.7696 73.6343C40.7617 73.8448 40.7547 74.0546 40.748 74.2641C40.6929 76.0163 40.5704 77.7714 40.848 79.512C41.1203 81.2191 41.719 82.9657 42.3023 84.5905C42.4222 84.9243 42.5778 85.2166 42.7352 85.5321C42.9344 85.9316 42.9959 86.3561 43.1662 86.765C43.2956 87.0758 43.5242 87.3114 43.6743 87.6075C43.859 87.9714 43.9197 88.3911 44.0914 88.7638C44.4407 89.5216 44.8727 90.2898 45.2987 91.007C45.7459 91.7597 46.417 92.3261 46.9 93.0497C47.6031 94.1025 48.5501 95.1191 49.5647 95.8882C50.799 96.8238 52.1515 97.6076 53.3135 98.6136C53.8998 99.1212 54.7109 99.5513 55.4144 99.8683C55.8546 100.067 56.1129 100.31 56.4939 100.584C56.8233 100.822 57.2018 100.939 57.5754 101.09C58.4277 101.435 59.2465 101.866 60.076 102.263C60.698 102.56 61.343 103.025 62.0341 103.106C62.2107 103.127 62.2122 102.875 62.0729 102.82C61.425 102.563 60.7921 102.126 60.166 101.811C59.442 101.447 58.8804 101.026 58.2371 100.545C57.085 99.6848 55.948 98.8929 54.7432 98.1106C54.1406 97.7193 53.6627 97.2023 53.0613 96.8098C52.3926 96.3731 51.7338 95.9998 51.1054 95.5004C50.5943 95.0942 50.0346 94.7407 49.5795 94.2682C49.1367 93.8087 48.5408 93.2565 48.1914 92.7321C47.8161 92.1686 47.4237 91.6707 46.9796 91.1586C46.3831 90.4706 46.0035 89.6535 45.5636 88.8619C45.2065 88.2192 45.0447 87.4899 44.6671 86.8677C44.264 86.2034 44.0821 85.4826 43.7175 84.7946C43.3267 84.0568 43.1488 83.2233 42.8947 82.4322C42.6432 81.6488 42.3612 80.8828 42.1599 80.0839C41.7303 78.3799 41.6998 76.6693 41.6961 74.9222C41.6923 73.1317 41.6265 71.2761 42.0049 69.5152C42.0787 69.1717 42.1513 68.831 42.225 68.4911C43.4287 66.0784 44.4023 63.6206 45.9684 61.3949C47.6871 58.9525 49.5161 56.72 51.6329 54.6103C52.6254 53.6211 53.6399 52.6963 54.7115 51.7951C55.7767 50.899 56.9526 50.2066 58.0892 49.4079C62.9524 45.9907 68.6666 44.026 74.2916 42.2577C80.1198 40.4257 86.2557 39.5859 92.3562 39.9549C93.6564 40.0335 94.9647 40.2331 96.2634 40.3962C97.7477 40.5825 99.0221 41.1451 100.379 41.7307C102.87 42.8055 105.031 44.4304 106.63 46.6317C107.444 47.7511 108.152 48.9906 108.704 50.2592C109.252 51.5173 109.903 53.0205 109.893 54.4123C109.884 55.5749 109.61 57.0996 108.92 58.0534ZM100.852 61.3474C101.053 61.2235 101.258 61.1042 101.474 60.9984C101.806 60.8357 102.323 60.5708 102.686 60.26C102.743 60.2563 102.801 60.248 102.864 60.231C102.973 60.2014 103.077 60.1603 103.178 60.1131C102.737 60.3934 102.273 60.6502 101.826 60.8866C101.504 61.0562 101.179 61.2077 100.852 61.3474Z" fill="#747776"/>
<path d="M81.6923 80.3201C81.6695 80.2524 81.6437 80.1879 81.6169 80.1245C81.6185 80.1174 81.6212 80.1109 81.6227 80.1038C81.7114 79.6999 81.6155 79.3012 81.5288 78.9059C81.3453 78.0678 81.0847 77.3873 80.3746 76.8597C79.5733 76.2644 78.4806 75.9312 77.5111 75.7693C76.3493 75.5752 75.5264 75.9388 74.4449 76.3183C74.3176 76.363 74.2953 76.5651 74.4449 76.5997C75.2634 76.7886 76.1108 76.4417 76.9571 76.5761C77.8137 76.7121 78.7722 77.0318 79.4859 77.5408C79.9144 77.8462 80.1178 78.2553 80.2461 78.7137C79.8402 78.4994 79.3905 78.3384 78.9341 78.1897C77.5899 77.752 76.2274 78.1061 74.9113 78.5808C73.7273 79.0078 72.5924 79.699 71.8748 80.7508C71.5128 81.2815 70.9236 81.714 70.7095 82.3286C70.6169 82.5941 70.6332 82.8754 70.5635 83.1445C70.4584 83.5501 70.2298 83.8782 70.1701 84.3036C70.1081 84.7459 70.081 85.1973 70.1159 85.634C70.0579 85.5013 70.0087 85.3697 69.9758 85.2532C69.8345 84.7517 69.683 84.129 69.6223 83.6143C69.4793 82.4022 70.0386 81.453 70.5 80.3851C70.9729 79.2904 71.754 78.3669 72.4273 77.3941C72.4792 77.3188 72.3778 77.2239 72.3036 77.2705C71.1068 78.0212 70.1511 78.9667 69.6096 80.2979C69.3406 80.959 68.8626 81.4998 68.7163 82.2117C68.5793 82.878 68.5792 83.6247 68.6893 84.2941C68.7842 84.8711 68.7332 85.6564 69.0119 86.1904C69.211 86.5713 69.3773 87.0343 69.7173 87.3219C70.2561 87.7778 71.2081 88.5703 71.9863 88.3231C72.8429 88.815 73.7942 89.0837 74.8233 89.1251C75.6438 89.158 76.0971 88.8051 76.7949 88.4675C76.8927 88.4202 76.9804 88.377 77.0611 88.3355C77.3733 88.2787 77.6994 88.2401 77.8129 88.1992C78.3096 88.0201 78.8065 87.6049 79.1654 87.2222C79.5953 86.7641 79.9037 86.211 80.2263 85.6774C80.6003 85.0584 81.0434 84.4791 81.3359 83.8143C81.7944 82.7729 82.0656 81.4278 81.6923 80.3201ZM80.3823 82.6805C80.0816 83.7845 79.2977 84.8873 78.6544 85.8282C78.3648 86.2515 77.9871 86.5916 77.6871 87.0065C77.5102 87.2516 77.3063 87.4883 77.0786 87.6987C76.862 87.7311 76.6412 87.7606 76.4226 87.8305C75.5802 88.0999 75.0238 87.9618 74.2324 87.6356C73.4815 87.326 72.179 86.7272 71.9864 85.8363C71.8629 85.2649 72.0081 84.5323 72.2037 84.0076C72.4198 83.4282 72.3835 82.9785 72.7185 82.4538C73.0245 81.9749 73.2351 81.4402 73.661 81.046C74.1121 80.6289 74.7433 80.2748 75.3153 80.0474C75.8973 79.8161 76.521 79.6688 77.1304 79.5318C77.8557 79.3687 78.3394 79.4996 79.0331 79.7318C79.752 79.9725 80.1828 80.3701 80.3866 80.8803C80.3902 81.0895 80.4118 81.2976 80.4741 81.5035C80.4854 81.541 80.5044 81.5701 80.526 81.595C80.5376 81.9308 80.4877 82.2943 80.3823 82.6805Z" fill="#747776"/>
<path d="M56.1577 69.276C55.4891 68.8241 54.7064 68.308 53.8783 68.2794C52.8123 68.2427 51.882 68.6198 50.8586 68.7118C49.9881 68.2497 49.0601 68.5625 48.2669 69.3304C46.9804 70.5762 45.7267 72.0623 45.0037 73.7173C44.7772 74.2362 44.4857 74.9466 44.5954 75.5237C44.6995 76.0722 45.2313 76.8177 45.6771 77.1431C46.313 77.6069 47.1986 77.4088 47.9321 77.5403C48.497 77.6417 49.1164 77.8309 49.3308 78.4328C49.458 78.7894 49.463 79.2284 49.5269 79.6017C49.7891 81.1363 49.5175 82.3512 50.9872 83.2784C52.322 84.1206 53.9095 83.0861 54.8549 82.0776C56.14 80.707 56.0295 79.1041 55.6367 77.3681C55.5557 77.0102 55.3742 76.5837 55.4395 76.2123C55.5446 75.6143 56.1353 75.5425 56.5555 75.2677C57.1834 74.8568 57.6422 74.1743 57.8854 73.4732C58.4729 71.7801 57.5452 70.2139 56.1577 69.276ZM56.3805 72.7964C56.1368 74.0186 54.7893 74.3154 54.3505 75.3839C53.9046 76.4692 54.4992 77.7584 54.5886 78.8627C54.6469 79.5822 54.6178 80.241 54.1877 80.8471C53.7586 81.4521 53.1109 82.0739 52.4108 82.3372C51.8588 82.545 51.1651 82.3454 50.8333 81.8275C50.4504 81.2292 50.6745 80.4655 50.581 79.8026C50.4497 78.8731 50.4827 77.7247 49.7157 77.0735C49.3397 76.7544 48.8936 76.5241 48.4121 76.43C47.6461 76.2806 46.5905 76.4687 46.0816 75.8255C45.6258 75.2492 45.8518 74.5804 46.1673 73.9743C46.4977 73.3401 46.894 72.6805 47.3116 72.0983C47.8251 71.3824 48.4617 70.7662 49.0555 70.1191C49.3673 69.7791 49.6966 69.4993 50.0591 69.4056C50.0867 69.6806 50.2827 69.9395 50.6503 69.9629C51.3493 70.0074 51.8149 69.8838 52.4717 69.7178C53.1762 69.5398 53.9823 69.5563 54.6093 69.9224C55.1224 70.222 55.6961 70.4749 56.0244 70.9929C56.3367 71.4861 56.4942 72.2254 56.3805 72.7964Z" fill="#747776"/>
<path d="M65.8112 54.2393C65.1348 52.6101 63.1992 51.6287 61.4704 52.0188C60.8294 52.1634 60.4426 52.6153 60.1501 53.1801C59.686 54.0766 59.2102 54.6549 58.2555 55.0939C58.0749 55.177 58.0179 55.3647 58.0519 55.5386C58.0261 55.5467 58 55.558 57.9735 55.5757C57.3379 56.0006 56.5724 56.2059 55.9259 56.6301C55.2598 57.0672 54.5935 57.6003 54.0057 58.1378C52.8499 59.1945 52.5461 60.5326 53.2944 61.9119C53.5862 62.4496 54.0141 62.9477 54.6078 63.1533C54.9113 63.2584 55.2229 63.2613 55.5384 63.2915C56.2493 63.3598 56.6136 63.5242 57.1471 64.0018C57.741 64.5335 58.3144 64.9745 58.6098 65.7383C58.8437 66.3433 59.0665 66.9777 59.685 67.2937C60.8583 67.8932 62.6209 66.9116 63.5492 66.2007C64.9157 65.1543 64.4147 63.5017 63.6849 62.1914C63.3184 61.5335 62.6049 60.6197 63.0158 59.887C63.43 59.1483 64.1167 58.6468 64.7292 58.0791C65.7807 57.1041 66.3909 55.636 65.8112 54.2393ZM63.7055 57.4639C63.0335 58.1589 62.2047 58.9805 61.9843 59.9668C61.7566 60.9861 62.5593 62.2317 62.8072 63.1928C62.985 63.8821 63.1101 64.6111 62.4623 65.0387C61.9985 65.3449 61.4599 65.6344 60.9312 65.8012C60.2673 66.0108 60.201 65.7075 59.9816 65.1579C59.755 64.5907 59.4358 64.1063 58.9734 63.699C58.1633 62.985 57.0376 62.2204 55.9355 62.148C55.5605 62.1233 55.1117 62.204 54.7689 62.0071C54.4656 61.8331 54.2486 61.4668 54.0962 61.1614C53.6348 60.237 53.9994 59.3285 54.6568 58.5952C55.1495 58.0456 55.757 57.5219 56.3672 57.1094C56.9676 56.7035 57.6811 56.494 58.2678 56.0793C58.3369 56.0305 58.3743 55.9664 58.3891 55.8995C59.4176 56.144 60.3321 55.3922 60.8348 54.5359C61.0447 54.1784 61.1523 53.6225 61.4875 53.3559C62.0608 52.9003 63.3055 53.3306 63.8164 53.7053C65.2838 54.7824 64.7714 56.3613 63.7055 57.4639Z" fill="#747776"/>
<path d="M84.6986 46.6151C84.1641 45.1518 82.4289 43.5595 80.7967 43.5905C79.8106 43.6092 78.9859 44.2719 78.1474 44.6998C77.5302 45.0148 76.9473 45.3323 76.3198 45.4633C75.9145 45.043 74.996 44.9063 74.498 45.2055C74.2422 45.3594 74.026 45.605 73.7851 45.7844C73.5638 45.9491 73.3907 46.1474 73.305 46.4052C73.2681 46.4284 73.2314 46.4534 73.1959 46.4816C72.6366 46.9277 72.1557 47.3476 71.772 47.976C71.1427 49.0064 70.6945 50.2638 70.9182 51.4854C71.1605 52.8081 72.2669 53.6479 73.5847 53.7174C73.9841 53.7385 74.389 53.6677 74.7873 53.7035C75.3579 53.7547 75.3246 53.8909 75.3861 54.4039C75.4789 55.1786 75.6936 55.9817 76.2026 56.5892C77.3176 57.9199 78.7279 58.448 80.3642 57.7382C81.721 57.1497 83.3483 56.2389 83.4264 54.6093C83.4723 53.6556 83.0625 52.9104 82.8142 52.0222C82.7231 51.696 82.6186 51.1797 82.7715 51.0196C83.0061 50.7742 83.7255 50.677 84.0408 50.4551C85.3264 49.5496 85.1794 47.9299 84.6986 46.6151ZM83.7555 48.7556C83.5024 50.0062 81.8003 49.5873 81.5606 50.8552C81.3141 52.1595 82.8743 54.0802 81.6229 54.9946C80.7592 55.6256 79.1957 56.8377 78.1468 56.1475C77.6236 55.8031 77.1951 55.2655 76.9867 54.6839C76.8134 54.2008 76.7618 53.6224 76.4862 53.182C75.8496 52.1661 74.5647 52.556 73.5855 52.6004C71.6484 52.6879 71.3984 50.8719 71.9049 49.3928C72.1076 48.8004 72.447 47.9907 72.9098 47.5585C73.1266 47.3559 73.3642 47.2129 73.5668 47.0102C73.6143 46.9625 73.6612 46.9209 73.7078 46.8834C74.0071 46.7756 74.2879 46.6985 74.5665 46.5924C74.6527 46.5868 74.7421 46.5831 74.8396 46.5807C74.9631 46.5776 75.0187 46.4808 75.0114 46.3881C75.0248 46.3807 75.0381 46.3744 75.0516 46.3667C75.0704 46.3557 75.0905 46.3486 75.1099 46.3392C75.3375 46.5894 75.5258 46.8198 75.9072 46.8891C76.5656 47.0089 77.1566 46.6303 77.7288 46.3624C78.3614 46.0663 78.9735 45.768 79.5766 45.415C80.3746 44.9479 81.0376 44.7486 81.8813 45.2372C82.9178 45.8379 84.0096 47.4999 83.7555 48.7556Z" fill="#747776"/>
<path d="M100.934 48.9806C100.798 48.1086 100.528 47.2093 100.072 46.4467C99.6289 45.7063 98.9002 45.5678 98.1693 45.2023C97.0037 44.6191 95.46 43.4532 94.2917 44.4316C93.5258 43.9236 92.4893 44.2284 91.7819 44.8183C90.811 45.6277 89.5091 46.9359 89.3308 48.2533C89.1607 49.5104 90.5053 50.5759 91.4568 51.1824C91.7571 51.3738 91.9569 51.426 92.0016 51.8156C92.0393 52.1441 91.8545 52.5414 91.751 52.8439C91.5271 53.4979 91.2825 54.1958 91.441 54.8968C91.6875 55.9871 92.7542 56.3628 93.7693 56.3357C95.1311 56.2996 96.178 55.6608 97.356 55.0526C98.3866 54.5205 99.7904 53.9105 100.558 53.01C101.449 51.9643 101.129 50.2226 100.934 48.9806ZM99.4207 52.2856C99.0547 52.6246 98.5483 52.8125 98.1227 53.0606C97.0158 53.7059 95.7703 54.618 94.5046 54.8951C94.1012 54.9835 93.6021 55.0713 93.1942 54.9605C92.4486 54.758 92.7519 53.9858 92.934 53.4286C93.2552 52.4453 93.6327 51.2433 92.7155 50.4517C92.3472 50.1338 91.901 49.9269 91.5264 49.6064C91.2743 49.3905 90.9612 49.1754 90.7695 48.8999C90.4417 48.4285 90.6443 48.1174 90.9081 47.6846C91.373 46.9215 92.7811 44.8857 93.932 45.1402C93.9574 45.1906 93.9973 45.235 94.058 45.2654C94.3184 45.396 94.4895 45.4331 94.7842 45.461C95.2255 45.5027 95.4316 45.6996 95.8254 45.844C96.1515 45.9635 96.4775 45.9599 96.8058 46.0763C97.0442 46.1605 97.2817 46.2766 97.514 46.3752C97.8318 46.5103 98.2721 46.6151 98.5715 46.7773C99.033 47.0274 99.202 47.5115 99.372 47.9764C99.6356 48.6979 99.738 49.4525 99.7756 50.2159C99.8097 50.9048 99.9773 51.7699 99.4207 52.2856Z" fill="#747776"/>
<path d="M59.3613 95.6356C59.0387 96.1144 58.7854 96.6764 58.6183 97.2275C58.4631 97.7388 58.4664 98.6868 59.2552 98.5492C59.5348 98.5003 59.6028 98.1735 59.5094 97.9543C59.511 97.9469 59.5124 97.9377 59.5135 97.923C59.5191 97.8497 59.5373 97.7814 59.5522 97.7095C59.5984 97.483 59.6678 97.2641 59.7407 97.0451C59.862 96.6801 60.0036 96.3221 60.1232 95.9569C60.277 95.4876 59.614 95.2603 59.3613 95.6356Z" fill="#747776"/>
<path d="M61.6567 96.1597C61.6045 96.1532 61.5523 96.1468 61.5 96.1404C61.1507 96.0973 61.0162 96.4986 61.1471 96.7598C60.9756 97.1624 60.6872 97.5079 60.6243 97.974C60.5717 98.3641 60.5186 99.287 61.1042 99.344C61.6744 99.3996 61.6452 98.5951 61.6626 98.2399C61.6911 97.657 62.0361 97.1733 62.0847 96.5874C62.1054 96.3373 61.8699 96.1859 61.6567 96.1597Z" fill="#747776"/>
<path d="M64.7765 97.6246C64.7463 97.392 64.6004 97.1963 64.3459 97.1936C64.1268 97.1913 63.897 97.3929 63.9152 97.6244C63.9387 97.9235 63.6598 98.197 63.5243 98.4469C63.4035 98.6697 63.1856 98.8963 63.1151 99.131C63.0821 99.2398 63.1115 99.402 63.2062 99.4757C63.6618 99.8306 64.1368 99.411 64.3204 98.9731C64.5006 98.5436 64.8405 98.1138 64.7765 97.6246Z" fill="#747776"/>
<path d="M66.3596 98.2317C66.3329 98.021 66.2393 97.891 66.0412 97.814C65.9889 97.7896 65.9346 97.7725 65.8778 97.7625C65.4551 97.6597 65.2503 98.119 65.4633 98.4111C65.414 98.5801 65.3169 98.741 65.2844 98.914C65.2325 99.1885 65.253 99.4946 65.3372 99.7591C65.4671 100.168 66.0817 100.199 66.1976 99.7591C66.2679 99.493 66.23 99.2344 66.2649 98.9675C66.298 98.7158 66.3922 98.492 66.3596 98.2317Z" fill="#747776"/>
<path d="M76.5892 97.9802C76.5638 97.5601 75.9624 97.5599 75.936 97.9802C75.8992 98.5655 75.7706 99.1171 75.6879 99.6925C75.6109 100.229 76.3588 100.473 76.5232 99.9228C76.6128 99.623 76.6935 99.3435 76.6887 99.0264C76.6834 98.6775 76.6103 98.3295 76.5892 97.9802Z" fill="#747776"/>
<path d="M78.7298 97.9632C78.537 97.5892 78.0498 97.8135 78.0112 98.1579C78.024 98.043 77.9923 98.1678 77.974 98.2054C77.9517 98.2515 77.93 98.297 77.9045 98.3414C77.8455 98.4444 77.7711 98.5376 77.7119 98.6403C77.568 98.8896 77.4565 99.1952 77.5425 99.4818C77.6743 99.9211 78.4336 100.002 78.5163 99.4818C78.5373 99.3493 78.5357 99.2906 78.5661 99.2134C78.6208 99.074 78.695 98.9404 78.7517 98.8014C78.8729 98.5051 78.8778 98.2503 78.7298 97.9632Z" fill="#747776"/>
<path d="M80.3533 97.8565C79.9868 97.8519 79.8063 98.2635 79.9139 98.5466C79.9025 98.56 79.8915 98.5731 79.8821 98.5848C79.7227 98.7831 79.6464 99.0025 79.6052 99.2539C79.5612 99.5219 79.5166 99.9304 79.7203 100.145C79.933 100.37 80.2411 100.26 80.3864 100.026C80.5234 99.8044 80.6228 99.4849 80.682 99.284C80.7151 99.2396 80.7494 99.1967 80.7825 99.1524C80.8344 99.0828 80.8884 99.0135 80.9319 98.9381C81.2278 98.4238 80.97 97.8645 80.3533 97.8565Z" fill="#747776"/>
</g>
<defs>
<clipPath id="clip0_435:17">
<rect width="73" height="73" fill="white" transform="translate(39 37)"/>
</clipPath>
</defs>
</svg>
