<?xml version="1.0" encoding="utf-8"?><svg viewBox="0 0 40 40" xmlns="http://www.w3.org/2000/svg" xmlns:xlink="http://www.w3.org/1999/xlink"><style>:root>svg{display:none}:root>svg:target{display:block}</style><svg viewBox="0 0 39 23" id="arr-down_tr" xmlns="http://www.w3.org/2000/svg"><path d="M18.43 21.587L.44 3.548a1.512 1.512 0 012.141-2.135L19.5 18.378 36.418 1.413a1.511 1.511 0 112.14 2.135L20.57 21.587a1.51 1.51 0 01-2.14 0z" fill="inherit"/></svg><svg viewBox="0 0 34 34" id="arr-right_circ" xmlns="http://www.w3.org/2000/svg"><circle cx="17" cy="17" r="16.295" fill="inherit" stroke="inherit"/><path d="M20.132 17.104l-5.785 5.63a.48.48 0 01-.668-.687l5.44-5.295-5.31-5.426a.479.479 0 11.686-.67l5.646 5.77a.479.479 0 01-.009.678z" fill="currentColor"/></svg><svg viewBox="0 0 9 15" id="arr-right_tr" xmlns="http://www.w3.org/2000/svg"><path d="M8.003 8.116l-6.467 6.292a.536.536 0 01-.746-.767L6.87 7.723.937 1.658a.535.535 0 11.765-.749l6.31 6.449a.535.535 0 01-.01.758z" fill="inherit"/></svg><svg viewBox="0 0 23 23" id="clock-ic" xmlns="http://www.w3.org/2000/svg"><path d="M11.5 0C5.168 0 0 5.168 0 11.5S5.168 23 11.5 23 23 17.832 23 11.5 17.832 0 11.5 0zm0 21.652c-5.598 0-10.152-4.554-10.152-10.152 0-5.598 4.554-10.152 10.152-10.152 5.598 0 10.152 4.554 10.152 10.152 0 5.598-4.554 10.152-10.152 10.152z" fill="inherit"/><path d="M5.782 17.891a.674.674 0 100-1.347.674.674 0 000 1.347zM17.218 6.456a.674.674 0 100-1.347.674.674 0 000 1.347zM5.306 5.306a.674.674 0 10.953.953.674.674 0 00-.953-.953zM16.741 16.741a.674.674 0 10.953.953.674.674 0 00-.953-.953zM11.5 5.436a.674.674 0 00.674-.674V3.414a.674.674 0 00-1.348 0v1.348c0 .372.302.674.674.674zM11.5 17.564a.674.674 0 00-.674.674v1.348a.674.674 0 101.348 0v-1.348a.674.674 0 00-.674-.674zM5.436 11.5a.674.674 0 00-.674-.674H3.414a.674.674 0 000 1.348h1.348a.674.674 0 00.674-.674zM17.564 11.5c0 .372.302.674.674.674h1.348a.674.674 0 100-1.348h-1.348a.674.674 0 00-.674.674zM12.174 11.22V7.458a.674.674 0 00-1.348 0V11.5c0 .179.071.35.198.476l4.043 4.043a.674.674 0 00.953-.952l-3.846-3.846z" fill="inherit"/></svg><svg viewBox="0 0 28 24" id="image-ic" xmlns="http://www.w3.org/2000/svg"><path d="M3.333 4a4 4 0 118 0 4 4 0 01-8 0zM14 17.333l-5.333-4L.667 24h26.666L22 8l-8 9.333z" fill="inherit"/></svg><svg viewBox="0 0 32 32" id="insta" xmlns="http://www.w3.org/2000/svg"><path d="M23.338 0H8.662C3.886 0 0 3.886 0 8.662v14.676C0 28.114 3.886 32 8.662 32h14.676C28.114 32 32 28.114 32 23.338V8.662C32 3.886 28.114 0 23.338 0zm6.786 23.338a6.794 6.794 0 01-6.786 6.786H8.662a6.794 6.794 0 01-6.786-6.786V8.662a6.794 6.794 0 016.786-6.786h14.676a6.794 6.794 0 016.786 6.786v14.676z" fill="inherit"/><path d="M16 7.25c-4.825 0-8.75 3.925-8.75 8.75s3.925 8.75 8.75 8.75 8.75-3.925 8.75-8.75S20.825 7.25 16 7.25zm0 15.624A6.882 6.882 0 019.126 16 6.882 6.882 0 0116 9.126 6.882 6.882 0 0122.874 16 6.881 6.881 0 0116 22.874zM24.959 4.143a2.588 2.588 0 00-2.585 2.585 2.588 2.588 0 002.585 2.586 2.589 2.589 0 002.586-2.586 2.588 2.588 0 00-2.586-2.585zm0 3.295a.71.71 0 11.002-1.421.71.71 0 01-.002 1.42z" fill="inherit"/></svg><svg viewBox="0 0 15 19" id="loc-ic" xmlns="http://www.w3.org/2000/svg"><path d="M7.5.3A7.36 7.36 0 00.14 7.66a7.296 7.296 0 001.914 4.95l5.096 5.929a.46.46 0 00.7 0l5.096-5.93a7.295 7.295 0 001.914-4.95A7.36 7.36 0 007.5.3zm4.747 11.711L7.5 17.536l-4.747-5.52a6.44 6.44 0 119.494 0v-.005z" fill="inherit"/><path d="M7.5 4.44a3.22 3.22 0 100 6.44 3.22 3.22 0 000-6.44zm0 5.52a2.3 2.3 0 110-4.6 2.3 2.3 0 010 4.6z" fill="inherit"/></svg><svg viewBox="0 0 23 17" id="mail-ic" xmlns="http://www.w3.org/2000/svg"><path d="M2.021.414h18.957c1.117 0 2.022.91 2.022 2.022v12.128a2.024 2.024 0 01-2.021 2.022H2.02c-1.107 0-2.021-.9-2.021-2.021V2.434C0 1.327.901.416 2.021.416zm.284 1.348l7.766 7.725c.381.382.889.592 1.429.592s1.048-.21 1.43-.593l7.765-7.724H2.305zM21.652 14.29V2.71L15.83 8.505l5.823 5.786zm-.957.948l-5.822-5.784-.99.986a3.347 3.347 0 01-2.383.987c-.9 0-1.746-.35-2.381-.986l-.992-.987-5.822 5.784h18.39zM1.348 14.29L7.17 8.504 1.348 2.71v11.58z" fill="inherit"/></svg><svg viewBox="0 0 17 17" id="smile-ic" xmlns="http://www.w3.org/2000/svg"><path d="M12.073 10.442a.37.37 0 00-.522.029 4.094 4.094 0 01-3.05 1.355 4.094 4.094 0 01-3.052-1.355.37.37 0 10-.55.493A4.835 4.835 0 008.5 12.565c1.378 0 2.69-.584 3.601-1.601a.37.37 0 00-.028-.522z" fill="inherit"/><path d="M8.5 0C3.813 0 0 3.813 0 8.5 0 13.187 3.813 17 8.5 17c4.687 0 8.5-3.813 8.5-8.5C17 3.813 13.187 0 8.5 0zm0 16.26C4.22 16.26.74 12.78.74 8.5.74 4.22 4.22.74 8.5.74c4.28 0 7.76 3.48 7.76 7.76 0 4.28-3.48 7.76-7.76 7.76z" fill="inherit"/><path d="M11.457 5.913a1.85 1.85 0 00-1.848 1.848.37.37 0 00.739 0 1.11 1.11 0 011.108-1.109 1.11 1.11 0 011.11 1.109.37.37 0 00.738 0 1.85 1.85 0 00-1.848-1.848zM6.652 7.76a.37.37 0 00.74 0 1.85 1.85 0 00-1.849-1.847 1.85 1.85 0 00-1.847 1.848.37.37 0 00.739 0 1.11 1.11 0 011.108-1.109 1.11 1.11 0 011.11 1.109z" fill="inherit"/></svg><svg viewBox="0 0 26 29" id="support-ic" xmlns="http://www.w3.org/2000/svg"><path d="M21.676 10.32v.474c.27-.021.939-.008 1.648.193v-.667c0-5.69-4.63-10.32-10.32-10.32S2.684 4.63 2.684 10.32v.667c.593-.168 1.26-.223 1.648-.193v-.474c0-4.782 3.89-8.673 8.672-8.673s8.672 3.891 8.672 8.673zM21.673 21.422c0 2.293-1.79 3.852-3.766 3.852h-1.92a1.904 1.904 0 00-1.717-1.08h-2.538a1.904 1.904 0 100 3.807h2.538c.757 0 1.41-.44 1.717-1.08h1.92c2.77 0 5.414-2.117 5.414-5.695-.653.187-1.31.223-1.648.196zM4.135 12.435A3.67 3.67 0 00.468 16.31a3.681 3.681 0 003.593 3.468c.559.014.896-.393.896-.826v-5.692a.82.82 0 00-.822-.826zM21.854 12.435a.82.82 0 00-.808.826v5.692c0 .429.334.84.896.826 1.898-.036 3.49-1.548 3.593-3.468a3.669 3.669 0 00-3.68-3.876zM16.855 16.276a2.238 2.238 0 00-3.165-3.165l-.69.69-.69-.69a2.239 2.239 0 00-3.166 3.165l3.467 3.467a.55.55 0 00.777 0l3.467-3.467z" fill="inherit"/></svg><svg viewBox="0 0 40 40" id="tg-ic" xmlns="http://www.w3.org/2000/svg"><path d="M20 40c11.048 0 20-8.952 20-20S31.048 0 20 0 0 8.952 0 20s8.952 20 20 20zM9.152 19.567l19.283-7.435c.895-.324 1.677.218 1.387 1.571l.001-.001L26.54 29.17c-.243 1.097-.895 1.363-1.807.847l-5-3.685-2.411 2.323c-.267.267-.492.492-1.009.492l.355-5.089 9.267-8.371c.403-.355-.09-.555-.622-.202l-11.451 7.21-4.937-1.54c-1.072-.34-1.095-1.072.227-1.588z" fill="inherit" fill-opacity="inherit"/></svg><svg viewBox="0 0 40 40" id="viber-ic" xmlns="http://www.w3.org/2000/svg"><g clip-path="url(#lclip0_258:598)" fill="inherit" fill-opacity="inherit"><path d="M29.44 13.986c-.174-.681-.681-1.459-1.317-2.125-.782-.818-1.782-1.484-2.657-1.68a29.09 29.09 0 00-10.934 0c-1.591.355-3.584 2.274-3.973 3.805a20.91 20.91 0 000 8.975c.314 1.241 1.675 2.728 3.023 3.441.298.165.618.288.95.366a.147.147 0 01.123.146v4.363a.241.241 0 00.415.166l2.075-2.125 1.946-2a.141.141 0 01.109-.045c2.1.056 4.2-.113 6.264-.505 1.59-.354 3.584-2.273 3.975-3.807.65-2.956.65-6.018.002-8.975zm-3.917 9.196a3.366 3.366 0 01-1.446 1.59c-.201.088-.41.155-.625.2-.243-.074-.475-.122-.682-.213a17.181 17.181 0 01-4.738-2.795 12.506 12.506 0 01-1.189-1.166 15.373 15.373 0 01-2.273-3.47c-.29-.592-.536-1.207-.786-1.819-.227-.557.11-1.136.454-1.55a3.599 3.599 0 011.221-.909.782.782 0 01.98.227 12.789 12.789 0 011.515 2.12 1.012 1.012 0 01-.284 1.364 3.37 3.37 0 00-.325.257c-.096.072-.18.16-.245.262a.712.712 0 00-.055.631c.439 1.207 1.105 2.212 2.1 2.919.337.239.7.438 1.082.595.25.136.53.204.814.198.495-.06.659-.605 1.004-.889a.952.952 0 011.137-.05c.368.227.722.482 1.077.734.35.239.688.496 1.011.77a.805.805 0 01.253.994zm-3.264-5.455a.48.48 0 01-.027-.116 3.197 3.197 0 00-.069-.454 1.318 1.318 0 00-.486-.764 1.342 1.342 0 00-.393-.19c-.18-.05-.368-.037-.546-.08a.337.337 0 01-.272-.389.352.352 0 01.37-.284c1.041.077 1.818.577 2.018 1.693.021.104.036.209.044.314a.908.908 0 010 .284.293.293 0 01-.241.227h-.05a.34.34 0 01-.348-.24zm-.332-2.816a4.087 4.087 0 00-1.104-.338c-.169-.027-.337-.043-.505-.066a.32.32 0 01-.302-.36.316.316 0 01.352-.31 4.606 4.606 0 011.916.5c.726.364 1.319.949 1.693 1.67.211.422.352.876.418 1.343.013.06.022.122.028.184.011.137.016.27.027.441v.064a.906.906 0 01-.027.2.334.334 0 01-.628.031.958.958 0 01-.034-.281 3.66 3.66 0 00-.295-1.478 3.093 3.093 0 00-.152-.3 3.327 3.327 0 00-1.387-1.3zm3.755 4.191c-.228 0-.339-.193-.355-.404-.03-.416-.052-.834-.109-1.248a5.226 5.226 0 00-4.214-4.373c-.327-.056-.66-.07-.99-.106-.21-.021-.485-.035-.53-.296a.358.358 0 01.352-.402h.244A6.031 6.031 0 0125 15c.43.669.722 1.417.859 2.2.086.493.118.998.157 1.498a.352.352 0 01-.334.404z"/><path d="M20 0a20 20 0 100 40 20 20 0 000-40zm11.552 23.439v.027c-.581 2.361-3.213 4.89-5.63 5.418h-.027A31.392 31.392 0 0120 29.45c-.577 0-1.16-.018-1.736-.052l-2.668 2.775a1.06 1.06 0 01-1.819-.734v-2.634a6.747 6.747 0 01-1.77-.82c-1.677-1.067-3.132-2.837-3.55-4.52v-.026a23.08 23.08 0 010-9.93v-.03c.582-2.358 3.211-4.888 5.634-5.415h.027a31.291 31.291 0 0111.777 0h.028c1.304.284 2.67 1.152 3.743 2.272.909.944 1.618 2.069 1.886 3.153v.03a23.08 23.08 0 010 9.92z"/></g><defs><clipPath id="lclip0_258:598"><path fill="inherit" d="M0 0h40v40H0z"/></clipPath></defs></svg><svg viewBox="0 0 40 40" id="wp-ic" xmlns="http://www.w3.org/2000/svg"><path d="M11.692 28.37l3.5-1.113a9.102 9.102 0 005.009 1.495c5.021 0 9.107-4.054 9.107-9.036 0-4.982-4.085-9.036-9.107-9.036-5.02 0-9.107 4.054-9.107 9.036a8.941 8.941 0 001.735 5.298l-1.137 3.355zm4.154-13.232a.98.98 0 01.708-.33c.178 0 .354.023.51.023.154 0 .375-.088.597.44.22.527.752 1.823.818 1.955a.481.481 0 01.022.461 1.797 1.797 0 01-.265.44c-.133.153-.28.343-.399.461-.132.131-.27.274-.116.538.4.677.897 1.292 1.477 1.824 1.014.898 1.87 1.176 2.135 1.307.266.132.42.11.575-.066.155-.176.665-.768.841-1.033.177-.264.354-.219.598-.131s1.549.725 1.814.857c.266.131.443.197.51.307.066.109.065.637-.156 1.252-.22.615-1.306 1.21-1.792 1.253-.486.043-.487.395-3.187-.659-2.7-1.054-4.402-3.802-4.535-3.977-.132-.175-1.084-1.428-1.084-2.725 0-1.296.686-1.933.93-2.197z" fill="inherit" fill-opacity="inherit"/><path d="M20 40c11.046 0 20-8.954 20-20S31.046 0 20 0 0 8.954 0 20s8.954 20 20 20zM9.369 19.716c0-5.936 4.85-10.748 10.832-10.748 5.982 0 10.831 4.812 10.831 10.748 0 5.936-4.85 10.748-10.831 10.748a10.852 10.852 0 01-5.236-1.337l-5.997 1.905 1.955-5.767a10.638 10.638 0 01-1.554-5.549z" fill="inherit" fill-opacity="inherit"/></svg></svg>