<svg width="57" height="57" viewBox="0 0 57 57" xmlns="http://www.w3.org/2000/svg">
<path d="M36.625 48.782C35.5931 49.1964 34.5267 49.5438 33.4237 49.7977L32.9769 55.6192C32.92 56.3627 32.2984 56.9375 31.553 56.9375H25.445C24.6995 56.9375 24.08 56.3627 24.0231 55.6212L23.5763 49.7997C21.1834 49.2492 18.947 48.3047 16.9259 47.0392L12.4877 50.8438C11.9209 51.3292 11.078 51.2967 10.5498 50.7686L6.23141 46.4502C5.70328 45.922 5.67281 45.0791 6.15625 44.5123L9.96078 40.0741C8.69734 38.053 7.75281 35.8166 7.20031 33.4237L1.37875 32.9769C0.637344 32.92 0.0625 32.2984 0.0625 31.553V25.445C0.0625 24.6995 0.637344 24.08 1.37875 24.0231L7.20031 23.5763C7.75078 21.1834 8.69531 18.947 9.96078 16.9259L6.15828 12.4877C5.67281 11.923 5.70531 11.078 6.23141 10.5519L10.5498 6.23344C11.0759 5.70734 11.9209 5.67484 12.4877 6.15828L16.9259 9.96281C18.947 8.69938 21.1834 7.75484 23.5763 7.20234L24.0231 1.38078C24.08 0.637344 24.7016 0.0625 25.447 0.0625H31.555C32.3005 0.0625 32.92 0.637344 32.9769 1.37875L33.0033 1.71797C31.427 4.13719 30.5312 6.98906 30.5312 10.0055C30.5312 12.447 31.1081 14.787 32.1623 16.8752C31.0066 16.5095 29.7756 16.3125 28.5 16.3125C21.7684 16.3125 16.3125 21.7684 16.3125 28.5C16.3125 35.2316 21.7684 40.6875 28.5 40.6875C31.6261 40.6875 34.4678 39.5012 36.625 37.5655V48.782Z" fill="inherit"/>
<path d="M50.8438 19.9464V51.8594C50.8438 54.6645 48.5708 56.9375 45.7656 56.9375C42.9605 56.9375 40.6875 54.6645 40.6875 51.8594V19.9464C37.0719 18.0959 34.5938 14.3442 34.5938 10.0034C34.5938 5.8089 36.9094 2.16078 40.33 0.251404C40.4864 0.166091 40.6875 0.287966 40.6875 0.466716V12.25L45.7656 14.2812L50.8438 12.25V0.466716C50.8438 0.287966 51.0448 0.166092 51.2013 0.253435C54.6219 2.16281 56.9375 5.8089 56.9375 10.0055C56.9375 14.3442 54.4594 18.098 50.8438 19.9464V19.9464Z" fill="inherit"/>
</svg>
