<svg width="66" height="58" viewBox="0 0 66 58" xmlns="http://www.w3.org/2000/svg">
<path d="M12.8268 57.5713H53.1738C54.0075 57.5702 54.8149 57.2795 55.4581 56.749C56.1012 56.2186 56.5401 55.4812 56.6998 54.6629H9.30078C9.46047 55.4812 9.89939 56.2186 10.5425 56.749C11.1857 57.2795 11.9931 57.5702 12.8268 57.5713Z" fill="inherit"/>
<path d="M51.9601 35.7304H54.9523C57.3614 35.7277 59.6711 34.7695 61.3746 33.066C63.0781 31.3625 64.0363 29.0528 64.0391 26.6437V19.1879C64.0391 19.0066 63.967 18.8327 63.8388 18.7045C63.7106 18.5763 63.5368 18.5043 63.3555 18.5043H53.1776V16.5253H40.8319V22.1011L43.7095 25.1518C43.9098 25.3637 44.0213 25.6443 44.0208 25.9359V31.2592C44.0205 31.5621 43.9 31.8526 43.6858 32.0669C43.4716 32.2811 43.1811 32.4016 42.8781 32.402H37.4181C37.1153 32.4014 36.8251 32.2808 36.611 32.0665C36.397 31.8523 36.2766 31.562 36.2763 31.2592V25.9359C36.2757 25.6441 36.3874 25.3633 36.5881 25.1515L39.465 22.1011V16.5253H12.8226V28.825C12.8237 31.4891 13.3508 34.1268 14.3736 36.5867V28.3531C14.3736 28.1718 14.4457 27.9979 14.5739 27.8697C14.7021 27.7415 14.8759 27.6695 15.0572 27.6695C15.2385 27.6695 15.4124 27.7415 15.5406 27.8697C15.6688 27.9979 15.7408 28.1718 15.7408 28.3531V37.1485C15.7403 37.1877 15.7363 37.2267 15.7291 37.2652C17.0332 36.3876 18.4923 35.7659 20.0286 35.4332C21.4628 35.1037 22.9421 35.0165 24.4051 35.1753C24.5769 35.198 24.7345 35.2828 24.8479 35.4139C24.9613 35.5449 25.0226 35.713 25.0203 35.8863C25.018 36.0505 24.9539 36.2077 24.8408 36.3268C24.7277 36.4458 24.574 36.518 24.4102 36.5289C24.2349 36.5853 22.4879 37.2849 22.0113 42.676C21.9364 43.5939 21.7467 44.4987 21.4465 45.3694C24.3546 47.412 27.755 48.6415 31.297 48.931H16.5313C17.9208 48.3103 20.287 46.6599 20.6499 42.5557C20.9353 39.3257 21.686 37.5075 22.4282 36.4846C21.7042 36.5215 20.9848 36.6199 20.2776 36.7789C17.5283 37.4009 15.3387 38.8523 13.7639 41.0951C14.2161 42.0728 14.4982 43.1206 14.5979 44.1932C15.511 42.9206 16.5521 41.7451 17.7051 40.685C17.7723 40.625 17.8506 40.5789 17.9357 40.5494C18.0208 40.5198 18.1108 40.5073 18.2007 40.5127C18.2906 40.518 18.3785 40.5411 18.4595 40.5805C18.5404 40.6199 18.6128 40.675 18.6724 40.7425C18.7321 40.8099 18.7778 40.8885 18.8069 40.9737C18.8361 41.0589 18.8481 41.1491 18.8423 41.2389C18.8366 41.3288 18.8131 41.4166 18.7733 41.4974C18.7334 41.5781 18.6781 41.6502 18.6103 41.7095C18.5854 41.7316 16.0828 43.9654 14.5646 46.8201C14.5442 46.8578 14.5201 46.8935 14.4929 46.9267C14.3787 47.6084 14.206 48.279 13.9767 48.931H12.5206C13.1742 47.3489 14.3217 43.3666 11.3006 39.7572C9.54624 37.661 8.73509 36.0406 8.40505 34.8353C6.82239 37.5543 4.53974 42.5569 6.18747 46.6615C6.59452 47.6799 7.38802 48.4958 8.39466 48.931H0.917236C1.08406 50.1401 1.68251 51.248 2.60217 52.0504C3.52183 52.8528 4.70065 53.2955 5.92114 53.2969H60.0797C61.3002 53.2955 62.479 52.8528 63.3986 52.0504C64.3183 51.248 64.9168 50.1401 65.0836 48.931H34.7115C38.5443 48.599 42.203 47.1807 45.2581 44.8425C48.3133 42.5044 50.6382 39.3434 51.9601 35.7304ZM53.1776 28.825V19.8715H62.6719V26.6437C62.6696 28.6903 61.8555 30.6525 60.4083 32.0997C58.9611 33.5469 56.999 34.3609 54.9523 34.3632H52.4047C52.9188 32.5621 53.1789 30.6981 53.1776 28.825ZM15.7408 24.8301C15.7408 25.0114 15.6688 25.1853 15.5406 25.3135C15.4124 25.4417 15.2385 25.5137 15.0572 25.5137C14.8759 25.5137 14.7021 25.4417 14.5739 25.3135C14.4457 25.1853 14.3736 25.0114 14.3736 24.8301V23.9961C14.3736 23.8148 14.4457 23.641 14.5739 23.5128C14.7021 23.3846 14.8759 23.3125 15.0572 23.3125C15.2385 23.3125 15.4124 23.3846 15.5406 23.5128C15.6688 23.641 15.7408 23.8148 15.7408 23.9961V24.8301ZM9.00442 48.9299C7.73294 45.8629 8.25247 41.5299 8.27982 41.3161C8.3023 41.1362 8.39532 40.9726 8.53843 40.8612C8.68154 40.7499 8.86301 40.7 9.04291 40.7225C9.22281 40.745 9.38642 40.838 9.49774 40.9811C9.60905 41.1242 9.65896 41.3057 9.63647 41.4856C9.52479 42.5394 9.49394 43.6003 9.54419 44.6588C9.63183 46.4635 9.96597 47.9193 10.5163 48.9299H9.00442Z" fill="inherit"/>
<path d="M37.6436 31.0348H42.654V26.025L40.1487 23.3688L37.6436 26.0251V31.0348Z" fill="inherit"/>
<path d="M21.9787 6.0091C21.9787 6.95847 21.5441 7.41101 20.9943 7.98414C20.3858 8.61797 19.6287 9.40601 19.6287 10.9058C19.6287 11.0871 19.7007 11.261 19.8289 11.3892C19.9571 11.5174 20.131 11.5894 20.3123 11.5894C20.4936 11.5894 20.6674 11.5174 20.7956 11.3892C20.9238 11.261 20.9958 11.0871 20.9958 10.9058C20.9958 9.95672 21.4305 9.50404 21.9802 8.93092C22.5888 8.29722 23.3459 7.50904 23.3459 6.0091C23.3459 4.50916 22.5886 3.7207 21.9802 3.08715C21.4301 2.51402 20.9958 2.06176 20.9958 1.11224C20.9958 0.930943 20.9238 0.757069 20.7956 0.62887C20.6674 0.500671 20.4936 0.42865 20.3123 0.42865C20.131 0.42865 19.9571 0.500671 19.8289 0.62887C19.7007 0.757069 19.6287 0.930943 19.6287 1.11224C19.6287 2.6115 20.3859 3.40023 20.9945 4.03406C21.5441 4.60718 21.9787 5.06054 21.9787 6.0091Z" fill="inherit"/>
<path d="M27.3662 10.9058C27.3662 11.0871 27.4382 11.261 27.5664 11.3892C27.6946 11.5174 27.8685 11.5894 28.0498 11.5894C28.2311 11.5894 28.405 11.5174 28.5332 11.3892C28.6614 11.261 28.7334 11.0871 28.7334 10.9058C28.7334 9.95672 29.168 9.50404 29.7178 8.93092C30.3262 8.29722 31.0835 7.50904 31.0835 6.0091C31.0835 4.50916 30.3266 3.7207 29.7187 3.08728C29.1687 2.51402 28.7344 2.06189 28.7344 1.11224C28.7344 0.930943 28.6623 0.757069 28.5341 0.62887C28.4059 0.500671 28.2321 0.42865 28.0508 0.42865C27.8695 0.42865 27.6956 0.500671 27.5674 0.62887C27.4392 0.757069 27.3672 0.930943 27.3672 1.11224C27.3672 2.61136 28.1243 3.40023 28.7327 4.03406C29.283 4.60718 29.7171 5.05945 29.7171 6.0091C29.7171 6.95875 29.2826 7.41101 28.7327 7.98414C28.1234 8.61797 27.3662 9.4067 27.3662 10.9058Z" fill="inherit"/>
<path d="M34.9163 10.9058C34.9163 11.0871 34.9883 11.261 35.1165 11.3892C35.2447 11.5174 35.4186 11.5894 35.5999 11.5894C35.7812 11.5894 35.955 11.5174 36.0832 11.3892C36.2114 11.261 36.2834 11.0871 36.2834 10.9058C36.2834 9.95672 36.7179 9.50404 37.2678 8.93092C37.8762 8.29722 38.6335 7.50904 38.6335 6.0091C38.6335 4.50916 37.8764 3.72111 37.2678 3.08728C36.7177 2.51402 36.2834 2.06189 36.2834 1.11224C36.2834 0.930943 36.2114 0.757069 36.0832 0.62887C35.955 0.500671 35.7812 0.42865 35.5999 0.42865C35.4186 0.42865 35.2447 0.500671 35.1165 0.62887C34.9883 0.757069 34.9163 0.930943 34.9163 1.11224C34.9163 2.61136 35.6734 3.40023 36.2818 4.03406C36.832 4.60718 37.2662 5.05945 37.2662 6.0091C37.2662 6.95875 36.8316 7.41101 36.2818 7.98414C35.6734 8.61797 34.9163 9.4067 34.9163 10.9058Z" fill="inherit"/>
<path d="M42.6541 10.9058C42.6541 11.0871 42.7261 11.261 42.8543 11.3892C42.9825 11.5174 43.1563 11.5894 43.3376 11.5894C43.5189 11.5894 43.6928 11.5174 43.821 11.3892C43.9492 11.261 44.0212 11.0871 44.0212 10.9058C44.0212 9.95672 44.4559 9.50404 45.0056 8.93092C45.6142 8.29722 46.3713 7.50904 46.3713 6.0091C46.3713 4.50916 45.6142 3.72111 45.0056 3.08728C44.4556 2.51416 44.0212 2.06189 44.0212 1.11224C44.0212 0.930943 43.9492 0.757069 43.821 0.62887C43.6928 0.500671 43.5189 0.42865 43.3376 0.42865C43.1563 0.42865 42.9825 0.500671 42.8543 0.62887C42.7261 0.757069 42.6541 0.930943 42.6541 1.11224C42.6541 2.61136 43.4112 3.40023 44.0197 4.03406C44.5698 4.60718 45.0041 5.05945 45.0041 6.0091C45.0041 6.95875 44.5695 7.41101 44.0197 7.98414C43.4112 8.61797 42.6541 9.4067 42.6541 10.9058Z" fill="inherit"/>
</svg>
