<svg width="58" height="64" viewBox="0 0 58 64" xmlns="http://www.w3.org/2000/svg">
<path d="M47.787 11.2712H44.0296C42.9913 11.2712 42.1509 12.1115 42.1509 13.15C42.1509 14.1884 42.9911 15.0287 44.0296 15.0287H47.787C48.8254 15.0287 49.6657 14.1885 49.6657 13.15C49.6656 12.1115 48.8254 11.2712 47.787 11.2712Z" fill="inherit"/>
<path d="M28.8019 4.79487L26.9233 1.0375C26.4555 0.109129 25.3308 -0.263246 24.4024 0.197253C23.4741 0.661378 23.0979 1.78975 23.5622 2.71812L25.4409 6.47549C25.9044 7.40012 27.0272 7.77999 27.9618 7.31574C28.8899 6.85162 29.266 5.72324 28.8019 4.79487Z" fill="inherit"/>
<path d="M41.1126 0.197292C40.1878 -0.263207 39.056 0.109292 38.5917 1.03754L36.713 4.79491C36.2489 5.72328 36.625 6.85153 37.5532 7.31578C38.4906 7.78128 39.612 7.39703 40.0741 6.47553L41.9528 2.71816C42.417 1.78979 42.0408 0.661416 41.1126 0.197292Z" fill="inherit"/>
<path d="M21.4852 11.2712H17.7279C16.6895 11.2712 15.8491 12.1115 15.8491 13.15C15.8491 14.1884 16.6894 15.0287 17.7279 15.0287H21.4852C22.5236 15.0287 23.364 14.1885 23.364 13.15C23.364 12.1115 22.5236 11.2712 21.4852 11.2712Z" fill="inherit"/>
<path d="M10.2129 30.1834H2.69808C1.66058 30.1834 0.819336 31.0245 0.819336 32.0622V62.1211C0.819336 63.1586 1.66046 63.9998 2.69808 63.9998H10.2128C11.2503 63.9998 12.0916 63.1587 12.0916 62.1211V32.062C12.0916 31.0245 11.2506 30.1834 10.2129 30.1834Z" fill="inherit"/>
<path d="M57.1429 35.1634C56.8115 32.2491 54.0892 30.1835 51.1561 30.1835H36.5092C37.754 27.9546 38.4221 21.6505 38.3925 19.0752C38.3433 14.8125 34.8132 11.3965 30.5503 11.3965H29.0001C27.9617 11.3965 27.1213 12.2367 27.1213 13.2752C27.1213 17.6196 25.4297 25.4611 22.2394 28.6516C20.092 30.799 18.2562 31.5771 15.8491 32.7801V60.9698C19.5345 62.1981 24.2137 64 31.3458 64H43.6353C47.6847 64 50.8384 60.2496 49.2693 56.2872C51.6599 55.6359 53.4229 53.4434 53.4229 50.8492C53.4229 50.117 53.2817 49.4163 53.0267 48.7723C57.0553 47.6747 58.5382 42.7003 55.742 39.5769C56.7693 38.4293 57.3358 36.8596 57.1429 35.1634Z" fill="inherit"/>
</svg>
