<svg width="61" height="62" viewBox="0 0 61 62" xmlns="http://www.w3.org/2000/svg">
<path d="M21.6406 49.2031H23.6094V51.1719H21.6406V49.2031Z" fill="inherit"/>
<path d="M54.125 59.0469V23.3239L30.5 7.28546L6.875 23.3239V33.8301C8.28659 33.8301 9.53872 34.6757 10.0683 35.9849C12.5214 42.0506 13.7656 46.1673 13.7656 48.2187C13.7656 52.3236 11.286 55.4962 7.85938 56.012V54.0167C10.1057 53.5176 11.7969 51.3136 11.7969 48.2187C11.7969 45.9114 9.69917 40.324 8.2423 36.7222C7.7442 35.4908 6.00481 35.4908 5.50672 36.7222C4.05083 40.324 1.95312 45.9114 1.95312 48.2187C1.95312 51.3146 3.64428 53.5176 5.89062 54.0167V59.0469H0.96875V61.0156H60.0312V59.0469H54.125ZM40.3438 46.25L42.3125 43.2969L44.2812 46.25V49.2031H48.2188V46.25L50.1875 43.2969L52.1562 46.25V59.0469H48.2188V53.1406H44.2812V59.0469H40.3438V53.1406H36.4062V59.0469H32.4688V46.25L34.4375 43.2969L36.4062 46.25V49.2031H40.3438V46.25ZM31.4844 26.5625H36.4062V28.5312C36.4062 30.1623 35.0842 31.4844 33.4531 31.4844H31.4844V26.5625ZM33.4531 19.6719C35.0842 19.6719 36.4062 20.9939 36.4062 22.625V24.5937H31.4844V19.6719H33.4531ZM24.5938 22.625C24.5938 20.9939 25.9158 19.6719 27.5469 19.6719H29.5156V24.5937H24.5938V22.625ZM24.5938 26.5625H29.5156V31.4844H27.5469C25.9158 31.4844 24.5938 30.1623 24.5938 28.5312V26.5625ZM26.5625 40.3437V59.0469H15.7344V40.3437H26.5625Z" fill="inherit"/>
<path d="M30.5 5.31676L56.957 23.2698L59.1679 20.0105L30.5 0.558289L1.83203 20.0105L4.04294 23.2698L30.5 5.31676Z" fill="inherit"/>
</svg>
