<svg width="23" height="23" viewBox="0 0 23 23" xmlns="http://www.w3.org/2000/svg">
<path d="M11.5 0C5.16786 0 0 5.16822 0 11.5C0 17.8321 5.16822 23 11.5 23C17.8321 23 23 17.8317 23 11.5C23 5.16786 17.8318 0 11.5 0ZM11.5 21.6523C5.90197 21.6523 1.34766 17.098 1.34766 11.5C1.34766 5.90197 5.90197 1.34766 11.5 1.34766C17.098 1.34766 21.6523 5.90197 21.6523 11.5C21.6523 17.098 17.098 21.6523 11.5 21.6523Z" fill="inherit"/>
<path d="M5.78222 17.8914C6.15437 17.8914 6.45605 17.5898 6.45605 17.2176C6.45605 16.8455 6.15437 16.5438 5.78222 16.5438C5.41008 16.5438 5.1084 16.8455 5.1084 17.2176C5.1084 17.5898 5.41008 17.8914 5.78222 17.8914Z" fill="inherit"/>
<path d="M17.2178 6.4562C17.5899 6.4562 17.8916 6.15452 17.8916 5.78238C17.8916 5.41023 17.5899 5.10855 17.2178 5.10855C16.8456 5.10855 16.5439 5.41023 16.5439 5.78238C16.5439 6.15452 16.8456 6.4562 17.2178 6.4562Z" fill="inherit"/>
<path d="M5.30576 5.30588C5.04261 5.56904 5.04261 5.99566 5.30576 6.25881C5.56891 6.52196 5.99554 6.52196 6.25869 6.25881C6.52184 5.99566 6.52184 5.56904 6.25869 5.30588C5.99558 5.04273 5.56891 5.04273 5.30576 5.30588Z" fill="inherit"/>
<path d="M16.7413 16.7412C16.4782 17.0043 16.4782 17.4309 16.7413 17.6941C17.0045 17.9572 17.4311 17.9572 17.6942 17.6941C17.9574 17.4309 17.9574 17.0043 17.6942 16.7412C17.4311 16.478 17.0044 16.478 16.7413 16.7412Z" fill="inherit"/>
<path d="M11.5 5.43555C11.8721 5.43555 12.1738 5.13385 12.1738 4.76172V3.41406C12.1738 3.04193 11.8721 2.74023 11.5 2.74023C11.1279 2.74023 10.8262 3.04193 10.8262 3.41406V4.76172C10.8262 5.13385 11.1279 5.43555 11.5 5.43555Z" fill="inherit"/>
<path d="M11.5 17.5645C11.1279 17.5645 10.8262 17.8661 10.8262 18.2383V19.5859C10.8262 19.9581 11.1279 20.2598 11.5 20.2598C11.8721 20.2598 12.1738 19.9581 12.1738 19.5859V18.2383C12.1738 17.8661 11.8721 17.5645 11.5 17.5645Z" fill="inherit"/>
<path d="M5.43555 11.5C5.43555 11.1279 5.13385 10.8262 4.76172 10.8262H3.41406C3.04193 10.8262 2.74023 11.1279 2.74023 11.5C2.74023 11.8721 3.04193 12.1738 3.41406 12.1738H4.76172C5.13385 12.1738 5.43555 11.8721 5.43555 11.5Z" fill="inherit"/>
<path d="M17.5645 11.5C17.5645 11.8721 17.8661 12.1738 18.2383 12.1738H19.5859C19.9581 12.1738 20.2598 11.8721 20.2598 11.5C20.2598 11.1279 19.9581 10.8262 19.5859 10.8262H18.2383C17.8661 10.8262 17.5645 11.1279 17.5645 11.5Z" fill="inherit"/>
<path d="M12.1738 11.2209V7.45703C12.1738 7.0849 11.8721 6.7832 11.5 6.7832C11.1279 6.7832 10.8262 7.0849 10.8262 7.45703V11.5C10.8262 11.6787 10.8972 11.8501 11.0236 11.9765L15.0665 16.0195C15.3296 16.2826 15.7563 16.2826 16.0195 16.0195C16.2826 15.7563 16.2826 15.3297 16.0195 15.0665L12.1738 11.2209Z" fill="inherit"/>
</svg>
