<svg width="28" height="24" viewBox="0 0 28 24" xmlns="http://www.w3.org/2000/svg">
<path d="M3.33341 4C3.33341 3.20888 3.56801 2.43552 4.00754 1.77772C4.44706 1.11992 5.07178 0.607234 5.80268 0.304484C6.53359 0.00173314 7.33785 -0.0774802 8.11378 0.0768607C8.8897 0.231202 9.60243 0.612165 10.1618 1.17157C10.7213 1.73098 11.1022 2.44372 11.2566 3.21964C11.4109 3.99556 11.3317 4.79983 11.0289 5.53074C10.7262 6.26164 10.2135 6.88635 9.5557 7.32588C8.8979 7.76541 8.12454 8 7.33341 8C6.27255 8 5.25513 7.57857 4.50499 6.82843C3.75484 6.07828 3.33341 5.06087 3.33341 4ZM14.0001 17.3333L8.66675 13.3333L0.666748 24H27.3334L22.0001 8L14.0001 17.3333Z" fill="inherit"/>
</svg>
