<svg width="15" height="19" viewBox="0 0 15 19" xmlns="http://www.w3.org/2000/svg">
<path d="M7.49993 0.299805C5.54794 0.299805 3.67589 1.07523 2.29563 2.4555C0.915359 3.83577 0.139933 5.70781 0.139933 7.6598C0.133875 9.49139 0.816971 11.2582 2.05353 12.6094L7.15033 18.5388C7.19352 18.5893 7.24713 18.6298 7.30748 18.6576C7.36783 18.6854 7.43349 18.6998 7.49993 18.6998C7.56638 18.6998 7.63204 18.6854 7.69239 18.6576C7.75274 18.6298 7.80635 18.5893 7.84953 18.5388L12.9463 12.6094C14.1829 11.2582 14.866 9.49139 14.8599 7.6598C14.8599 5.70781 14.0845 3.83577 12.7042 2.4555C11.324 1.07523 9.45193 0.299805 7.49993 0.299805ZM12.2471 12.0114L7.49993 17.536L2.75273 12.016C1.90813 11.0947 1.34989 9.94743 1.14611 8.71425C0.942319 7.48108 1.10179 6.21525 1.60507 5.07116C2.10835 3.92706 2.93368 2.95414 3.98041 2.27106C5.02715 1.58798 6.25003 1.22426 7.49993 1.22426C8.74983 1.22426 9.97272 1.58798 11.0195 2.27106C12.0662 2.95414 12.8915 3.92706 13.3948 5.07116C13.8981 6.21525 14.0575 7.48108 13.8538 8.71425C13.65 9.94743 13.0917 11.0947 12.2471 12.016V12.0114Z" fill="inherit"/>
<path d="M7.49978 4.43994C6.86293 4.43994 6.24037 4.62879 5.71085 4.98261C5.18132 5.33643 4.76861 5.83932 4.52489 6.4277C4.28118 7.01607 4.21741 7.66351 4.34166 8.28813C4.4659 8.91274 4.77258 9.48649 5.2229 9.93682C5.67323 10.3871 6.24697 10.6938 6.87159 10.8181C7.49621 10.9423 8.14364 10.8785 8.73202 10.6348C9.3204 10.3911 9.82329 9.9784 10.1771 9.44887C10.5309 8.91934 10.7198 8.29679 10.7198 7.65994C10.7198 6.80594 10.3805 5.98692 9.77666 5.38306C9.1728 4.77919 8.35378 4.43994 7.49978 4.43994ZM7.49978 9.95993C7.04489 9.95993 6.6002 9.82504 6.22197 9.57231C5.84374 9.31959 5.54894 8.96038 5.37486 8.54011C5.20078 8.11984 5.15523 7.65738 5.24398 7.21123C5.33272 6.76507 5.55178 6.35525 5.87344 6.03359C6.1951 5.71193 6.60492 5.49288 7.05107 5.40413C7.49723 5.31539 7.95968 5.36094 8.37995 5.53502C8.80022 5.7091 9.15943 6.00389 9.41216 6.38213C9.66489 6.76036 9.79978 7.20504 9.79978 7.65994C9.79978 8.26993 9.55746 8.85495 9.12612 9.28628C8.69479 9.71761 8.10978 9.95993 7.49978 9.95993Z" fill="inherit"/>
</svg>
