<svg width="17" height="17" viewBox="0 0 17 17" xmlns="http://www.w3.org/2000/svg">
<path d="M12.0727 10.4421C11.9204 10.3057 11.6865 10.319 11.5509 10.4709C10.78 11.3324 9.6683 11.8261 8.5001 11.8261C7.33228 11.8261 6.22025 11.3324 5.44934 10.4709C5.31297 10.319 5.07977 10.3057 4.92751 10.4421C4.77525 10.5781 4.76268 10.8116 4.89869 10.9639C5.80966 11.9817 7.12236 12.5652 8.5001 12.5652C9.87821 12.5652 11.1909 11.9813 12.1015 10.9639C12.2375 10.8116 12.2246 10.5781 12.0727 10.4421Z" fill="inherit"/>
<path d="M8.5 0C3.81317 0 0 3.81317 0 8.5C0 13.1868 3.81317 17 8.5 17C13.1868 17 17 13.1868 17 8.5C17 3.81317 13.1868 0 8.5 0ZM8.5 16.2609C4.22043 16.2609 0.73913 12.7796 0.73913 8.5C0.73913 4.22043 4.22043 0.73913 8.5 0.73913C12.7796 0.73913 16.2609 4.22043 16.2609 8.5C16.2609 12.7796 12.7796 16.2609 8.5 16.2609Z" fill="inherit"/>
<path d="M11.4565 5.91306C10.4376 5.91306 9.60864 6.74199 9.60864 7.76088C9.60864 7.96488 9.77421 8.13045 9.97821 8.13045C10.1822 8.13045 10.3478 7.96488 10.3478 7.76088C10.3478 7.14962 10.8452 6.65219 11.4565 6.65219C12.0677 6.65219 12.5652 7.14962 12.5652 7.76088C12.5652 7.96488 12.7307 8.13045 12.9347 8.13045C13.1387 8.13045 13.3043 7.96488 13.3043 7.76088C13.3043 6.74199 12.4754 5.91306 11.4565 5.91306Z" fill="inherit"/>
<path d="M6.65208 7.76088C6.65208 7.96488 6.81764 8.13045 7.02164 8.13045C7.22564 8.13045 7.39121 7.96488 7.39121 7.76088C7.39121 6.74199 6.56227 5.91306 5.54338 5.91306C4.52449 5.91306 3.69556 6.74199 3.69556 7.76088C3.69556 7.96488 3.86112 8.13045 4.06512 8.13045C4.26912 8.13045 4.43469 7.96488 4.43469 7.76088C4.43469 7.14962 4.93212 6.65219 5.54338 6.65219C6.15464 6.65219 6.65208 7.14962 6.65208 7.76088Z" fill="inherit"/>
</svg>
