<svg width="26" height="29" viewBox="0 0 26 29" xmlns="http://www.w3.org/2000/svg">
<path d="M21.6763 10.3196V10.7941C21.9459 10.773 22.6149 10.7864 23.3238 10.9874V10.3196C23.3238 4.62933 18.6945 0 13.0042 0C7.31385 0 2.68457 4.62933 2.68457 10.3196V10.9874C3.27729 10.8193 3.94342 10.7636 4.33201 10.7941V10.3196C4.33201 5.53818 8.2222 1.64744 13.0042 1.64744C17.7861 1.64744 21.6763 5.53818 21.6763 10.3196Z" fill="inherit"/>
<path d="M21.6733 21.4216C21.6733 23.7153 19.8834 25.2739 17.9067 25.2739H15.987C15.6799 24.6351 15.0266 24.1941 14.2703 24.1941H11.7319C10.6805 24.1941 9.82812 25.0464 9.82812 26.0977C9.82812 27.149 10.6805 28.0012 11.7319 28.0012H14.2703C15.0267 28.0012 15.68 27.5601 15.9871 26.9212H17.9067C20.6763 26.9212 23.3207 24.8041 23.3207 21.2256C22.6683 21.4128 22.0107 21.4494 21.6733 21.4216Z" fill="inherit"/>
<path d="M4.13503 12.4347C2.02306 12.4347 0.354973 14.2018 0.468346 16.3111C0.570463 18.2183 2.14873 19.7417 4.06086 19.779C4.61965 19.793 4.95708 19.3857 4.95708 18.953V13.2612C4.95713 12.821 4.61163 12.4347 4.13503 12.4347Z" fill="inherit"/>
<path d="M21.8543 12.4347C21.4021 12.4388 21.0459 12.8109 21.0459 13.2611V18.9531C21.0459 19.3819 21.3797 19.7934 21.9416 19.779C23.8399 19.7427 25.4324 18.231 25.5348 16.3112C25.6466 14.2334 24.0187 12.4347 21.8543 12.4347Z" fill="inherit"/>
<path d="M16.8552 16.2761C17.7293 15.402 17.7293 13.9847 16.8552 13.1106C15.9811 12.2366 14.5638 12.2366 13.6897 13.1106L12.9995 13.8009L12.3093 13.1106C11.4352 12.2366 10.0179 12.2366 9.14385 13.1106C8.26976 13.9847 8.26976 15.402 9.14385 16.2761L12.6112 19.7434C12.8256 19.9579 13.1733 19.9579 13.3878 19.7434L16.8552 16.2761Z" fill="inherit"/>
</svg>
