<svg width="40" height="40" viewBox="0 0 40 40" xmlns="http://www.w3.org/2000/svg">
<g clip-path="url(#clip0_258:598)">
<path d="M29.4408 13.9864C29.2658 13.3046 28.759 12.5273 28.1226 11.8614C27.3408 11.0432 26.3408 10.3773 25.4658 10.1819C21.8539 9.49076 18.1437 9.49076 14.5317 10.1819C12.9408 10.5364 10.9476 12.4546 10.559 13.9864C9.90937 16.9428 9.90937 20.005 10.559 22.9614C10.8726 24.2023 12.234 25.6887 13.5817 26.4023C13.8804 26.5666 14.2 26.6897 14.5317 26.7682C14.566 26.7741 14.5972 26.7919 14.6196 26.8186C14.6421 26.8452 14.6544 26.8789 14.6545 26.9137V31.2773C14.6544 31.3256 14.6688 31.3727 14.6958 31.4127C14.7229 31.4526 14.7613 31.4835 14.8061 31.5014C14.8509 31.5193 14.9001 31.5233 14.9472 31.5129C14.9943 31.5026 15.0372 31.4783 15.0704 31.4432L17.1454 29.3182L19.0908 27.3182C19.1046 27.3032 19.1215 27.2914 19.1404 27.2835C19.1592 27.2757 19.1795 27.272 19.1999 27.2728C21.2998 27.3293 23.3997 27.1601 25.4635 26.7682C27.0544 26.4137 29.0476 24.4955 29.4385 22.9614C30.0889 20.0052 30.0897 16.943 29.4408 13.9864V13.9864ZM25.5226 23.1819C25.2276 23.8559 24.7199 24.4147 24.0772 24.7728C23.876 24.8601 23.6667 24.9271 23.4522 24.9728C23.209 24.8978 22.9772 24.85 22.7704 24.7591C21.0509 24.0879 19.4509 23.144 18.0317 21.9637C17.61 21.6019 17.213 21.2124 16.8431 20.7978C15.9322 19.749 15.1677 18.5815 14.5704 17.3273C14.2795 16.7364 14.034 16.1205 13.784 15.5091C13.5567 14.9523 13.8931 14.3728 14.2385 13.9591C14.5759 13.5725 14.992 13.2626 15.459 13.05C15.6229 12.9667 15.811 12.9437 15.9902 12.9853C16.1693 13.0269 16.3281 13.1303 16.4385 13.2773C17.0148 13.9307 17.5227 14.6412 17.9545 15.3978C18.0909 15.6182 18.1374 15.8825 18.0846 16.1363C18.0317 16.39 17.8834 16.6138 17.6704 16.7614C17.5567 16.8387 17.4431 16.9319 17.3454 17.0182C17.249 17.0904 17.1659 17.1788 17.0999 17.2796C17.0426 17.3735 17.0078 17.4795 16.9983 17.5891C16.9889 17.6987 17.005 17.8091 17.0454 17.9114C17.484 19.1182 18.1499 20.1228 19.1454 20.8296C19.4822 21.0685 19.8451 21.2683 20.2272 21.425C20.4764 21.561 20.757 21.6292 21.0408 21.6228C21.5363 21.5637 21.6999 21.0182 22.0454 20.7341C22.2042 20.6046 22.4005 20.5298 22.6053 20.5208C22.81 20.5118 23.0121 20.5691 23.1817 20.6841C23.5499 20.9114 23.9044 21.166 24.259 21.4182C24.6096 21.6568 24.9472 21.914 25.2704 22.1887C25.4213 22.2991 25.529 22.4587 25.5751 22.6399C25.6211 22.8212 25.6026 23.0128 25.5226 23.1819V23.1819ZM22.259 17.7273C22.2451 17.69 22.236 17.651 22.2317 17.6114C22.2199 17.4585 22.1971 17.3065 22.1635 17.1569C22.0967 16.8529 21.9244 16.5824 21.6772 16.3932C21.5574 16.3085 21.4246 16.244 21.284 16.2023C21.1045 16.1523 20.9158 16.166 20.7385 16.1228C20.6509 16.1072 20.573 16.0576 20.5219 15.9848C20.4708 15.9119 20.4506 15.8218 20.4658 15.7341C20.4822 15.6497 20.529 15.5742 20.5972 15.5219C20.6655 15.4696 20.7505 15.444 20.8363 15.45C21.8772 15.5273 22.6544 16.0273 22.8544 17.1432C22.8752 17.2468 22.8896 17.3515 22.8976 17.4569C22.9125 17.551 22.9125 17.6468 22.8976 17.741C22.8851 17.7987 22.8553 17.8513 22.8123 17.8919C22.7694 17.9324 22.7151 17.959 22.6567 17.9682H22.6067C22.5301 17.9731 22.4541 17.952 22.391 17.9082C22.3279 17.8645 22.2814 17.8008 22.259 17.7273V17.7273ZM21.9272 14.9114C21.5769 14.7468 21.205 14.6328 20.8226 14.5728C20.6545 14.5455 20.4863 14.5296 20.3181 14.5069C20.2741 14.5047 20.231 14.4935 20.1916 14.4739C20.1521 14.4544 20.1171 14.4269 20.0887 14.3932C20.0604 14.3595 20.0392 14.3203 20.0267 14.2781C20.0142 14.2358 20.0105 14.1915 20.0158 14.1478C20.0162 14.1034 20.0258 14.0596 20.0442 14.0193C20.0626 13.9789 20.0893 13.9429 20.1225 13.9135C20.1557 13.8841 20.1948 13.8621 20.2371 13.8488C20.2794 13.8355 20.324 13.8313 20.3681 13.8364C21.0354 13.8622 21.6892 14.0328 22.284 14.3364C23.01 14.7013 23.6025 15.2859 23.9772 16.0069C24.188 16.4291 24.3292 16.8827 24.3954 17.35C24.4078 17.4109 24.4169 17.4723 24.4226 17.5341C24.434 17.6705 24.4385 17.8046 24.4499 17.975V18.0387C24.4483 18.1062 24.4391 18.1732 24.4226 18.2387C24.4025 18.3043 24.3627 18.3621 24.3086 18.4043C24.2545 18.4464 24.1887 18.4709 24.1201 18.4744C24.0516 18.4779 23.9837 18.4602 23.9256 18.4237C23.8675 18.3872 23.822 18.3337 23.7954 18.2705C23.7701 18.1788 23.7586 18.0838 23.7613 17.9887C23.7663 17.4811 23.6657 16.978 23.4658 16.5114C23.4205 16.4087 23.3697 16.3086 23.3135 16.2114C22.9876 15.6525 22.5059 15.2007 21.9272 14.9114V14.9114ZM25.6817 19.1023C25.4544 19.1023 25.3431 18.9091 25.3272 18.6978C25.2976 18.2819 25.2749 17.8637 25.2181 17.45C25.1195 16.7515 24.8765 16.0812 24.5044 15.4819C24.1218 14.8585 23.6125 14.3224 23.0096 13.9082C22.4067 13.494 21.7236 13.2109 21.0045 13.0773C20.6772 13.0205 20.3431 13.0069 20.0135 12.9705C19.8045 12.95 19.5295 12.9364 19.484 12.675C19.4779 12.625 19.4825 12.5742 19.4974 12.526C19.5122 12.4778 19.5371 12.4332 19.5703 12.3953C19.6036 12.3573 19.6444 12.3268 19.6902 12.3057C19.7361 12.2846 19.7858 12.2734 19.8363 12.2728H20.0795C21.0595 12.2933 22.0197 12.5524 22.8771 13.0276C23.7345 13.5028 24.4631 14.1799 24.9999 15C25.4301 15.6688 25.7222 16.4168 25.859 17.2C25.9454 17.6932 25.9772 18.1978 26.0158 18.6978C26.0232 18.7467 26.0202 18.7967 26.007 18.8444C25.9937 18.8921 25.9706 18.9365 25.9391 18.9746C25.9076 19.0128 25.8684 19.0439 25.824 19.0659C25.7797 19.0879 25.7312 19.1003 25.6817 19.1023V19.1023Z" fill="inherit" fill-opacity="inherit"/>
<path d="M20 0C16.0444 0 12.1776 1.17298 8.8886 3.37061C5.59962 5.56824 3.03617 8.69181 1.52242 12.3463C0.00866576 16.0009 -0.387401 20.0222 0.384303 23.9018C1.15601 27.7814 3.06082 31.3451 5.85787 34.1421C8.65492 36.9392 12.2186 38.844 16.0982 39.6157C19.9778 40.3874 23.9992 39.9913 27.6537 38.4776C31.3082 36.9638 34.4318 34.4004 36.6294 31.1114C38.827 27.8224 40 23.9556 40 20C40 14.6957 37.8929 9.60859 34.1421 5.85786C30.3914 2.10714 25.3043 0 20 0V0ZM31.5523 23.4386V23.4659C30.9705 25.8273 28.3386 28.3568 25.9227 28.8841H25.8955C23.9525 29.2581 21.9786 29.4476 20 29.45C19.4227 29.45 18.8409 29.4318 18.2636 29.3977L15.5955 32.1727C15.4488 32.3235 15.2606 32.4271 15.0548 32.4705C14.8489 32.5139 14.6349 32.495 14.4399 32.4163C14.2448 32.3375 14.0777 32.2025 13.9597 32.0284C13.8417 31.8543 13.7782 31.649 13.7773 31.4386V28.8045C13.1505 28.6183 12.5541 28.3419 12.0068 27.9841C10.3296 26.9182 8.87501 25.1477 8.45683 23.4659V23.4386C7.73639 20.168 7.73639 16.7797 8.45683 13.5091V13.4795C9.03864 11.1205 11.6682 8.59091 14.0909 8.06364H14.1182C18.0086 7.31819 22.0051 7.31819 25.8955 8.06364H25.9227C27.2273 8.34773 28.5932 9.21591 29.6659 10.3364C30.575 11.2795 31.2841 12.4045 31.5523 13.4886V13.5182C32.2714 16.7859 32.2714 20.1709 31.5523 23.4386V23.4386Z" fill="inherit" fill-opacity="inherit"/>
</g>
<defs>
<clipPath id="clip0_258:598">
<rect width="40" height="40" fill="inherit"/>
</clipPath>
</defs>
</svg>
