<svg width="40" height="40" viewBox="0 0 40 40" xmlns="http://www.w3.org/2000/svg">
<path d="M11.6916 28.3694L15.1911 27.2571C16.679 28.2346 18.4208 28.7543 20.201 28.7519C25.2222 28.7519 29.308 24.6984 29.308 19.716C29.308 14.7336 25.2227 10.6797 20.2015 10.6797C15.1803 10.6797 11.0945 14.7336 11.0945 19.716C11.0933 21.6217 11.7011 23.4779 12.8291 25.0139L11.6916 28.3694ZM15.8463 15.1383C15.9354 15.0378 16.0443 14.9567 16.1661 14.9C16.2879 14.8433 16.4201 14.8123 16.5544 14.8088C16.7317 14.8088 16.9084 14.8309 17.0634 14.8309C17.2184 14.8309 17.4393 14.7431 17.6606 15.2703C17.8819 15.7976 18.4131 17.0942 18.4792 17.2257C18.5213 17.2947 18.5454 17.3731 18.5492 17.4538C18.5531 17.5344 18.5366 17.6148 18.5013 17.6874C18.4344 17.8459 18.345 17.994 18.236 18.1271C18.103 18.2804 17.9569 18.4698 17.8375 18.5884C17.7047 18.7194 17.5662 18.862 17.7212 19.1256C18.1204 19.8035 18.6182 20.4183 19.1982 20.9498C20.2122 21.8475 21.068 22.1256 21.3334 22.2572C21.5988 22.3888 21.7536 22.3671 21.9084 22.191C22.0633 22.0149 22.5725 21.4227 22.7492 21.1584C22.9258 20.8941 23.1033 20.9391 23.347 21.027C23.5908 21.1149 24.8958 21.7521 25.1615 21.8837C25.4271 22.0153 25.6036 22.0814 25.6703 22.1907C25.737 22.3 25.7363 22.8284 25.5152 23.4434C25.2941 24.0585 24.2094 24.6521 23.7232 24.6956C23.2371 24.7391 23.2363 25.0914 20.5363 24.0371C17.8363 22.9828 16.1338 20.2351 16.0013 20.0599C15.8687 19.8846 14.9172 18.6318 14.9172 17.3352C14.9172 16.0387 15.6031 15.4021 15.8463 15.1383V15.1383Z" fill="inherit" fill-opacity="inherit"/>
<path d="M20 40C31.0457 40 40 31.0457 40 20C40 8.95433 31.0457 0 20 0C8.95433 0 0 8.95433 0 20C0 31.0457 8.95433 40 20 40ZM9.36874 19.716C9.36874 13.7799 14.2181 8.968 20.2005 8.968C26.1828 8.968 31.032 13.7799 31.032 19.716C31.032 25.6521 26.1828 30.4637 20.2006 30.4637C18.3705 30.4666 16.5694 30.0066 14.9647 29.1265L8.968 31.032L10.9227 25.2651C9.90406 23.5936 9.36635 21.6734 9.36874 19.716V19.716Z" fill="inherit" fill-opacity="inherit"/>
</svg>
