<?xml version="1.0" encoding="utf-8"?><svg viewBox="0 0 150 150" xmlns="http://www.w3.org/2000/svg" xmlns:xlink="http://www.w3.org/1999/xlink"><style>:root>svg{display:none}:root>svg:target{display:block}</style><svg viewBox="0 0 147 150" id="ic-1" xmlns="http://www.w3.org/2000/svg"><path d="M80 0L0 38l5 85 61 27 81-51-13-74L80 0z" fill="inherit"/><path d="M104.244 42.211a4.19 4.19 0 00-1.965.843 50.547 50.547 0 00-2.387 1.825c-.702.702-1.263 1.263-1.544 1.684a2.372 2.372 0 00-1.404-.42c-1.544-.282-3.088.42-4.211 1.263-.562.42-.983.842-1.404 1.263-.842-.28-1.685-.561-2.667-.421-1.264.14-2.247.702-3.089 1.404l-1.965 1.965c-.562.421-1.264.843-1.825.702-.562 0-.983-.421-1.124-.983-.14-.561 0-1.544 0-2.386.14-.842.14-1.966-.28-2.948a4.956 4.956 0 00-2.106-2.387c-.842-.561-1.825-.842-2.667-.982-.843-.14-1.825-.14-2.668-.14-1.825 0-3.79.56-5.053 2.105-.702.842-.843 1.825-1.124 2.527-.14.842-.28 1.684-.42 2.386-.141 1.545-.562 3.089-1.264 3.51-.421.28-.983.14-1.544.14-.562-.14-.983-.42-1.545-.982-.982-.983-1.684-2.246-2.526-3.37-.562-.561-.983-1.123-1.826-1.403-.702-.422-1.544-.562-2.246-.562-.842 0-1.544.421-2.105.702-.562.421-1.123.702-1.685 1.123-.562.983-1.544 1.825-2.246 2.808-.421.421-.702.983-.983 1.544l-.421.842c0 .281-.14.702-.14.983 0 .702.14 1.404.561 1.825.421.562.842.842 1.264 1.123.842.562 1.825.983 2.526 1.404.843.421 1.545.983 1.825 1.544.422.562.422 1.404.281 1.966-.561 1.403-4.07 1.123-6.458 1.544-.842.14-1.403.421-1.825.561l-.42.421s.14-.14.56-.28c.422-.14.984-.281 1.826-.421.983.14 1.965.14 3.088.14.562 0 1.264 0 1.966-.28.702-.141 1.544-.422 2.105-1.264.422-.843.281-1.966-.14-2.808-.983-1.544-3.088-2.386-4.633-3.37-.842-.56-1.403-1.263-1.403-2.105 0-.842.702-1.825 1.404-2.667.701-.843 1.544-1.685 2.526-2.387.422-.421.983-.702 1.404-.983.562-.28.983-.561 1.544-.561 1.123 0 2.106.562 2.949 1.544.842.983 1.544 2.246 2.526 3.37.562.561 1.264 1.123 2.106 1.403.421.14.842.14 1.264.14l.702-.14c.28-.14.42-.14.701-.28 1.264-.702 1.685-2.247 1.966-3.65.28.14.561.14.983.14.982 0 1.825-.702 1.684-1.264-.14-.561-.842-.842-1.825-.842-.28 0-.42 0-.561.14.14-.561.14-.982.28-1.544.14-.702.422-1.404.702-1.825.843-.982 2.387-1.404 3.931-1.544 1.544 0 3.229.14 4.493.842.561.422 1.123.843 1.263 1.545.14.701.14 1.403.14 2.246 0 .842-.28 1.825 0 2.948.14 1.263 1.404 2.386 2.668 2.386 1.263 0 2.246-.42 3.228-1.123.843-.702 1.404-1.404 1.966-1.965.561-.562 1.263-.842 1.965-.983h.843l-.281.281c-7.3 7.02-4.071 3.93-12.635 12.073-.842-.28-1.684-.421-2.386-.562-3.51-.561-6.318 0-8.143.702-1.825.702-2.527 1.545-2.527 1.545.14.14.983-.422 2.808-.843 1.685-.42 4.492-.842 7.58 0 .422.14.984.281 1.405.422-.421.42-2.808 2.667-4.633 4.492-1.263 1.263-2.808 2.527-4.212 3.79a57.847 57.847 0 00-4.351 3.931c-.562.561-1.123 1.123-1.545 1.965-.702-1.403-.982-2.948-1.123-4.211-.14-1.544.14-2.948.562-4.212a8.684 8.684 0 011.544-2.807c1.123-1.404 1.965-1.966 1.965-2.106 0-.14-1.123.28-2.527 1.684-.42.702-1.263 1.545-1.825 2.948-1.403 3.23-1.123 7.02.422 10.249.28.561.561 1.123.982 1.684.14.421.281.702.421 1.123 1.264 1.825 2.948 2.948 4.773 3.51.281.14.422.14.843.14h.561c3.65.983 8.002.421 11.512-2.106 2.246-1.544 3.93-3.93 4.633-6.457.42-1.685.561-3.37.42-4.914 2.106-1.825 2.106-1.825 6.74-6.457a3.067 3.067 0 001.965.702h1.684c.983-.14 1.685 0 2.527.42 3.089 1.545 4.492 6.318 2.668 9.406-.14.281-.422.562-.562.843-.14-1.264-.702-2.106-1.123-1.966-.562.14-.702 1.264-.843 2.387v.421c-.561 0-1.123-.14-1.825-.14h-.42c.28-.281.42-.702.42-1.264 0-.842-.42-1.544-.982-1.544s-.983.702-.983 1.544c0 .421.14.843.28 1.123-.56 0-1.263 0-1.965.422-.701.42-1.263 1.123-1.403 1.825-.14.842.14 1.544.42 2.105.282.562.703 1.123 1.124 1.544.561.422.983.702 1.404.983.842.562 1.684.983 2.246 1.544.421.562.561 1.264.561 2.106-.14.843-.561 1.544-1.123 2.106a6.216 6.216 0 01-2.105 1.685c-.843.561-1.545.982-2.246.982-.703 0-1.404-.14-2.106-.702-.702-.42-1.404-1.123-2.246-1.684-.843-.562-1.826-1.264-2.949-1.404-.561-.14-1.123-.14-1.825 0-.561.14-1.263.561-1.684.983-.562.701-.843 1.403-.843 2.246h-.982c-.983.14-1.825.42-1.966.982-.14.562.843 1.264 2.106.983.14 0 .421 0 .562-.14v1.123h-.983c-.983.14-1.965.28-2.106.842-.14.562.843 1.264 2.387 1.123.28 0 .421-.14.702-.14 0 .421-.14.842-.14.983-.141.28-.843.42-1.826.561-1.684.28-3.369.28-5.053.28-.843 0-1.545-.14-2.106-.42-.562-.281-.983-.702-1.264-1.404-.14-.281-.28-.702-.42-.983-.141-.14-.141-.421-.141-.561v-.562c0-.842 0-1.685-.14-2.527-.141-.842-.141-1.825-.983-2.667-.843-.843-2.246-.983-3.23-.421-.982.561-1.263 1.263-1.824 1.965-.421.562-.843 1.123-1.264 1.404-.982.561-2.526.561-3.65.14-1.263-.42-2.246-1.263-3.369-2.106-1.123-.842-2.106-1.684-2.246-2.667-.14-.983.421-2.106 1.123-2.948.702-.983 1.685-1.825 2.106-3.088.28-.562.421-1.264.561-1.825 0-.702-.14-1.404-.561-1.966-.421-.561-.983-.982-1.544-1.123-.422-.14-.843-.14-1.264-.28.14-.422.14-.703.14-1.264 0-1.123-.42-1.965-.982-2.106-.562-.14-1.123.843-1.123 2.106 0 .421.14.702.28.983H47.67c.14-.421.28-1.123.28-1.825 0-1.264-.14-2.247-.702-2.527-.561-.14-1.264.842-1.264 2.386 0 .562.14 1.123.281 1.544-.842-.42-1.404-1.263-1.684-2.105-.562-1.123-.562-2.387-.562-3.65 0-1.123.28-2.106.562-2.808.561-1.544 1.263-2.106 1.123-2.106 0 0-.281.14-.562.421-.28.281-.702.843-.983 1.545-.28.702-.701 1.825-.842 2.948-.14 1.123-.14 2.667.281 4.211.28.843.702 1.544 1.404 2.246s1.825.843 2.667.983c.983.14 1.966.14 2.948.14.983.14 1.966.281 2.387.983.561.702.42 1.685 0 2.667-.421.983-1.264 1.825-2.106 2.808-.421.562-.842 1.123-1.123 1.685-.28.702-.562 1.404-.421 2.246 0 .421.14.842.28 1.123-1.403 1.263-4.211 4.071-5.615 5.756a6.233 6.233 0 00-1.123 1.544c-.28.562-.562 1.264-.842 1.825-.281.562-.421 1.263-.702 1.825-.28.702-.421.983-.842 1.685-.14.28-.281.702-.562.982-.14.422-.28.702-.421 1.404 0 .702.28 1.404.983 1.825.561.281.842.421 1.263.421h.702a6.198 6.198 0 002.246-.842c.702-.281 1.404-.561 1.966-.842a30.22 30.22 0 003.65-1.966c2.246-1.403 3.93-3.088 5.334-4.492 1.825-1.825 3.089-3.088 3.79-3.93.562-.141.983-.281 1.404-.562.843-.421 1.404-1.264 1.825-1.825.422-.562.843-1.264 1.264-1.544.42-.281.842-.14 1.123.14.28.28.421.983.561 1.825.14.702 0 1.544.14 2.386v.702c0 .281.141.562.141.702l.421 1.264c.421.842 1.123 1.825 2.106 2.246.983.421 1.966.561 2.808.702 1.825.14 3.65 0 5.475-.281.42-.14.842-.14 1.404-.281.561-.14 1.263-.42 1.544-1.123.421-.561.421-1.263.561-1.684v-1.404-2.668c0-.842.281-1.684.562-2.105.28-.422.983-.562 1.684-.422.703.14 1.404.562 2.106 1.124.702.561 1.404 1.263 2.387 1.825.842.561 1.965 1.123 3.37.982 1.263-.14 2.245-.702 3.088-1.263.842-.562 1.684-1.264 2.526-2.106.843-.842 1.404-1.965 1.545-3.088.14-1.123 0-2.668-.983-3.65-.842-.983-1.825-1.545-2.667-1.966-.421-.28-.843-.421-1.123-.702-.281-.28-.562-.561-.702-.842-.422-.702-.281-1.123.28-1.404.422-.28 1.404-.14 2.387 0 .702.14 1.544.28 2.387.14.14.14.42 0 .702-.14.14 0 .28 0 .42-.14 1.264-.421 2.247-1.404 2.808-2.527 1.264-2.106 1.264-4.633.562-6.879-.702-2.246-1.965-4.212-4.212-5.335-1.123-.561-2.386-.702-3.51-.561-.842.14-1.684.14-2.105-.14l1.263-1.264c1.404-1.404 4.072-4.212 2.387-3.088.14-.422 0-.983-.28-1.404-.422-.422-.984-.702-1.545-.422-.421.281-.562 1.124 0 1.685.421.421.842.562 1.123.421-.842.702-1.965 1.685-2.808 2.387-.28-1.123-2.386-2.527-3.228-1.825-.422.421 0 1.404.842 2.106.42.28.983.561 1.404.561-.702.702-1.966 1.685-2.808 2.527a4.265 4.265 0 00-.702-.983c-.702-.842-1.404-1.404-1.965-1.123-.562.281-.422 1.404.42 2.387.282.421.703.702 1.124.842-1.123.983-2.246 2.106-3.65 3.229-3.93 3.229-8.423 7.16-13.477 11.652a9.009 9.009 0 01-1.825 1.404c-.28.14-.562.28-.842.28-.843-.28-1.685-.561-2.387-1.123a16.158 16.158 0 01-2.387-1.965c-.28-.561-.42-1.123-.28-1.544.14-.562.702-1.264 1.263-1.825l4.212-3.79c1.404-1.264 2.948-2.527 4.352-3.931 4.07-3.931 11.37-11.231 18.25-18.11 1.123-.983 2.105-2.106 3.088-2.948 1.544-.421 2.668-.983 3.65-.842 1.965.28 3.51 2.246 3.65 4.211.141 1.825-.842 3.37-1.544 4.492-1.685 2.247-2.808 3.37-2.667 3.51 0 0 1.404-.842 3.229-2.948.421-.562.982-1.263 1.403-2.106a6.528 6.528 0 00.702-2.948v-.561c.421-.14 1.123-.562 1.966-1.404 1.123-1.123 2.246-2.387 3.088-3.51.14-.28.421-.702.562-1.123.14-.561 0-1.263-.422-1.684-.842-.983-1.825-1.124-2.667-1.124zm-58.4 61.068c-.702.281-1.263.561-1.965.842-.562.281-1.264.562-1.825.702h-.421c0-.14.14-.421.14-.702l.421-.842c.28-.562.702-1.404.842-1.966.14-.702.422-1.263.562-1.825.14-.561.421-1.123.562-1.684 0-.14.14-.14.14-.281.421.702 1.263 1.544 2.246 2.527.702.702 1.544 1.263 2.246 1.685-.702.561-1.825.982-2.948 1.544zm8.844-5.756c-1.263.983-2.667 2.106-4.211 3.229l-.14-.141c-.562-.421-1.264-1.123-2.106-2.105-1.123-.983-2.106-1.825-2.808-2.246 1.404-1.826 3.65-4.493 5.054-6.177.561.701 1.263 1.263 1.965 1.825 1.123.842 2.246 1.825 3.79 2.386.703.28 1.545.421 2.247.421-.983.702-2.246 1.685-3.79 2.808zm27.516-23.585c0 .843-.14 1.825-.421 2.668-.562 2.105-1.966 4.07-3.931 5.475-2.106 1.544-4.633 2.246-7.16 2.246.281-.281.702-.562.843-.843 3.93-3.65 7.44-6.738 10.669-9.546zm23.023-29.48c0 .14-.141.28-.141.42-1.123 1.685-.561.843-2.526 3.65-.422.703-.843 1.264-1.124 1.545-.421-1.404-1.123-2.527-2.246-3.37.422 0 .983-.28 1.685-.701.702-.421 1.544-.843 2.386-1.404.422-.28.843-.421 1.264-.421.281 0 .702.14.702.28z" fill="#747776"/></svg><svg viewBox="0 0 150 150" id="ic-2" xmlns="http://www.w3.org/2000/svg"><path d="M119 0L4 18.214l6 60-10 32.143L87 150l63-43.929L119 0z" fill="iherit"/><g clip-path="url(#bclip0_435:17)" fill="#747776"><path d="M111.667 52.08a22.42 22.42 0 00-1.709-4.179c-1.304-2.419-3.135-4.984-5.538-6.404-2.571-1.52-5.147-2.905-8.157-3.269-2.99-.36-5.946-.63-8.974-.541-3.233.094-6.438.831-9.602 1.443-3.055.591-6.135 1.63-9 2.833-1.465.615-2.986 1.088-4.452 1.702-1.466.613-2.863 1.368-4.26 2.122-2.577 1.389-4.992 3.215-7.234 5.083-2.275 1.896-4.384 4.217-6.183 6.565-.955 1.247-1.834 2.557-2.717 3.855-.849 1.247-1.409 2.635-2.06 3.988-.628 1.305-1.286 2.657-1.755 4.027-.226.662-.314 1.333-.478 2.009-.174.715-.364 1.394-.41 2.132-.1 1.607-.17 3.196-.123 4.807.048 1.587.384 3.031.742 4.569.353 1.522.804 2.942 1.338 4.41.208.572.333 1.198.602 1.744.13.264.313.488.48.728.226.329.291.641.416 1.006.17.494.508.925.73 1.4.147.314.29.624.49.895.224.498.462.99.703 1.48.447.907 1.165 1.733 1.752 2.557.701.985 1.344 1.901 2.224 2.743.86.822 1.686 1.68 2.615 2.427.904.725 1.804 1.626 2.799 2.216.96.572 1.861 1.243 2.89 1.715.985.45 1.938.822 2.966 1.184 4.841 1.702 9.934 1.998 15.017 2.003 1.239.002 2.438-.022 3.67-.135.627-.058 1.255-.105 1.882-.167.682-.067 1.32-.263 1.992-.353.574-.077 1.07-.049 1.63-.244a46.55 46.55 0 001.726-.649c1.188-.468 2.41-.794 3.6-1.242 1.252-.471 2.31-1.282 3.478-1.916a6.055 6.055 0 001.497-1.156c.366-.376.798-.597 1.188-.946.96-.857 1.948-1.721 2.887-2.612.17.053.355.041.52-.078 2.367-1.707 3.932-4.279 4.622-7.092a8.29 8.29 0 00.227-2.162c-.013-.71.082-1.447-.046-2.147-.251-1.382-1.282-2.72-2.19-3.746-1.004-1.135-2.122-2.096-3.515-2.721-1.374-.616-2.781-1.064-4.182-1.587-.64-.239-.72-.392-1.039-.95-.39-.68-.685-1.203-.689-2.017-.005-1.323.53-2.831 1.079-4.027 1.24-2.706 3.748-5.072 6.423-6.309.626-.289 1.239-.455 1.789-.89a11.48 11.48 0 011.806-1.173c1.282-.682 2.55-1.587 3.698-2.478 2.109-1.636 4.451-3.316 4.954-6.098.276-1.526.333-2.852-.119-4.355zm-2.747 5.973c-.776 1.076-1.797 1.959-2.839 2.77-1.101.855-2.262 1.713-3.455 2.434-.552.334-1.143.589-1.668.968-.567.411-1.001.806-1.667 1.073-2.483.994-4.645 2.81-6.21 4.966-1.275 1.757-2.448 4.022-2.684 6.27a7.441 7.441 0 01-.315-2.381c.03-.677.062-1.325.132-1.968.084-.334.182-.655.291-.993.268-.831.47-1.704.785-2.516.294-.755.904-1.553 1.385-2.21l.002-.002c1.61-1.58 3.787-2.782 5.805-3.83.344-.13.684-.268 1.006-.44.094-.05.186-.104.278-.158.355-.136.714-.264 1.056-.439.549-.28 1.075-.602 1.611-.906 1.174-.667 2.282-1.13 3.221-2.152.055-.06-.027-.138-.089-.088-.398.325-.838.587-1.262.874a.345.345 0 00-.008-.062l-.025-.128c-.047-.238-.344-.238-.477-.085-.391.088-.66.328-1.009.558-.101.067-.213.186-.321.232-.226.096-.526-.057-.766-.068-.189-.008-.186.278 0 .292.136.01.257.042.374.078a6.6 6.6 0 00-.191.101c-.446.253-.949.336-1.421.52-.808.317-1.536.751-2.36 1.042a16.744 16.744 0 00-4.91 2.75 7.98 7.98 0 00-1.576 1.733c-.474.692-1.021 1.41-1.284 2.212a48.99 48.99 0 00-.792 2.723c-.06.225-.096.453-.118.682-.104.439-.201.879-.304 1.315-.295 1.245-.556 2.323-.139 3.588.282.857.59 1.927 1.277 2.545.212.432.579.637.953.895.091.177.186.354.281.535.529 1.002 1.674 1.328 2.647 1.748.636.275 1.22.65 1.859.925.661.285 1.33.558 1.938.95a8.818 8.818 0 011.58 1.327c.02.257.04.505.066.736.085.722.22 1.439.27 2.165.055.784-.13 1.47-.192 2.236-.063.766-.097 1.316-.4 2.051-.282.688-.553 1.31-1.055 1.871-.963 1.075-2.201 1.972-3.46 2.673-.578.322-1.227.445-1.836.691-.815.329-1.602.727-2.418 1.055-1.457.585-2.981 1.001-4.464 1.514-1.264.438-2.704.554-3.913 1.109-1.216.559-2.605.664-3.911.973-.754.178-1.485.319-2.256.415-.898.111-1.788-.056-2.685 0-.419.026-.83.149-1.249.15-.382.001-.74-.126-1.117-.173-.772-.096-1.58.104-2.331.272-.198.045-.2.359 0 .402.791.17 1.588.229 2.387.341.807.113 1.41.047 2.218-.054 1.574-.197 3.163.058 4.719-.394.692-.202 1.399-.317 2.096-.502.72-.191 1.453-.213 2.13-.521 1.488-.678 3.164-.949 4.715-1.511 1.621-.588 3.264-1.063 4.844-1.764 1.476-.655 3.007-1.107 4.359-2 .69-.457 1.317-1 2.038-1.408.578-.326 1.155-.715 1.58-1.232.392-.477.634-1.063.866-1.63.319-.775.33-1.389.388-2.194.068-.938.26-1.74.158-2.705l-.054-.469c.263.473.491.934.498 1.498.008.727.087 1.498.008 2.22-.148 1.338-.671 2.701-1.388 3.828-.293.463-.581.934-.871 1.405-.206.215-.386.46-.54.654-.71.901-1.86 1.545-2.78 2.234a26.13 26.13 0 00-1.34 1.066c-.43.369-.891.583-1.337.919-.378.285-.674.635-1.084.884-.506.306-1.062.519-1.57.823-1.046.627-1.972 1.131-3.153 1.485-1.193.358-2.34.861-3.504 1.302-.976.37-1.991.489-3.02.691-1.197.235-2.506.333-3.723.405-2.576.152-5.216.055-7.783-.126-.48-.034-.906-.04-1.381-.12-.517-.086-1.02.003-1.532-.067-1.244-.169-2.512-.441-3.734-.732-2.158-.513-4.54-1.166-6.44-2.34-1.926-1.189-3.897-2.463-5.578-4.01-.893-.822-1.926-1.567-2.658-2.543-.716-.956-1.451-1.886-2.182-2.824-.813-1.045-1.469-2.402-2-3.608-.52-1.177-.81-2.464-1.418-3.599a33.891 33.891 0 00-.333-1.147c-.884-2.816-1.581-5.72-1.56-8.68.008-1.248.006-2.56.169-3.814l-.022.63c-.055 1.752-.178 3.507.1 5.248.272 1.707.871 3.454 1.454 5.079.12.333.276.626.433.941.2.4.26.824.431 1.233.13.31.358.546.508.843.185.363.246.783.417 1.156.35.758.782 1.526 1.208 2.243.447.753 1.118 1.32 1.601 2.043a12.072 12.072 0 002.665 2.838c1.234.936 2.587 1.72 3.748 2.726.587.507 1.398.937 2.101 1.254.44.199.699.442 1.08.716.33.238.708.355 1.081.506.853.345 1.671.776 2.501 1.173.622.297 1.267.762 1.958.843.177.021.178-.231.039-.286-.648-.257-1.28-.694-1.907-1.009-.724-.364-1.286-.785-1.929-1.266a64.292 64.292 0 00-3.494-2.434c-.602-.392-1.08-.909-1.682-1.301-.668-.437-1.327-.81-1.956-1.31-.51-.406-1.07-.76-1.525-1.232-.443-.46-1.04-1.011-1.389-1.536a15.327 15.327 0 00-1.211-1.573c-.597-.688-.976-1.506-1.416-2.297-.358-.643-.52-1.372-.897-1.994-.403-.665-.585-1.385-.95-2.073-.39-.738-.568-1.572-.822-2.363-.252-.783-.534-1.55-.735-2.348-.43-1.704-.46-3.415-.464-5.162-.004-1.79-.07-3.646.309-5.407l.22-1.024c1.204-2.413 2.177-4.87 3.743-7.096 1.72-2.443 3.548-4.675 5.665-6.785a49.05 49.05 0 013.078-2.815c1.066-.896 2.242-1.588 3.378-2.387 4.863-3.417 10.578-5.382 16.203-7.15 5.828-1.832 11.964-2.672 18.064-2.303 1.3.078 2.609.278 3.907.441 1.485.187 2.76.75 4.116 1.335 2.491 1.075 4.652 2.7 6.251 4.9a19.36 19.36 0 012.074 3.628c.548 1.258 1.199 2.761 1.189 4.153-.009 1.163-.283 2.688-.973 3.641zm-8.068 3.294c.201-.123.406-.243.622-.349.332-.162.849-.427 1.212-.738a.893.893 0 00.178-.029c.109-.03.213-.07.314-.118-.441.28-.905.537-1.352.774-.322.17-.647.32-.974.46z"/><path d="M81.692 80.32a2.776 2.776 0 00-.075-.195c.001-.008.004-.014.006-.021.088-.404-.008-.803-.094-1.198-.184-.838-.444-1.519-1.154-2.046-.802-.596-1.894-.929-2.864-1.09-1.162-.195-1.985.169-3.066.548-.127.045-.15.247 0 .282.818.189 1.666-.158 2.512-.024.857.136 1.815.456 2.529.965.428.305.632.714.76 1.173-.406-.215-.855-.376-1.312-.524-1.344-.438-2.707-.084-4.023.39-1.184.428-2.319 1.119-3.036 2.17-.362.531-.951.964-1.165 1.579-.093.265-.077.546-.146.816-.106.405-.334.733-.394 1.159-.062.442-.089.893-.054 1.33a3.053 3.053 0 01-.14-.38c-.141-.502-.293-1.125-.354-1.64-.143-1.212.417-2.161.878-3.229.473-1.095 1.254-2.018 1.927-2.99.052-.076-.05-.171-.123-.124-1.197.75-2.153 1.696-2.694 3.027-.27.661-.747 1.202-.894 1.914a5.897 5.897 0 00-.027 2.082c.095.577.044 1.362.323 1.896.199.381.365.844.705 1.132.54.456 1.491 1.248 2.27 1.001a6.12 6.12 0 002.836.802c.82.033 1.274-.32 1.972-.657.098-.048.185-.091.266-.133.312-.056.638-.095.752-.136.497-.179.993-.594 1.352-.977.43-.458.739-1.011 1.061-1.545.374-.619.817-1.198 1.11-1.863.458-1.041.73-2.386.356-3.494zm-1.31 2.36c-.3 1.104-1.084 2.207-1.728 3.148-.29.423-.667.764-.967 1.178-.177.246-.38.482-.608.693-.217.032-.438.062-.656.132-.843.269-1.4.13-2.19-.195-.752-.31-2.054-.909-2.247-1.8-.123-.571.022-1.304.218-1.828.216-.58.18-1.03.515-1.554.306-.48.516-1.014.942-1.408.451-.417 1.082-.771 1.654-.999.582-.23 1.206-.378 1.815-.515.726-.163 1.21-.032 1.903.2.719.24 1.15.638 1.354 1.148.003.21.025.418.087.624.011.037.03.066.052.091.012.336-.038.7-.144 1.085zM56.158 69.276c-.669-.452-1.452-.968-2.28-.997-1.066-.036-1.996.34-3.02.433-.87-.462-1.798-.15-2.591.618-1.287 1.246-2.54 2.732-3.263 4.387-.227.52-.518 1.23-.409 1.807.105.548.636 1.294 1.082 1.62.636.463 1.522.265 2.255.396.565.102 1.184.29 1.399.893.127.356.132.795.196 1.169.262 1.534-.01 2.75 1.46 3.676 1.335.843 2.922-.192 3.868-1.2 1.285-1.371 1.175-2.974.782-4.71-.081-.358-.263-.784-.197-1.156.105-.598.695-.67 1.116-.944.627-.411 1.086-1.094 1.33-1.795.587-1.693-.34-3.26-1.728-4.197zm.222 3.52c-.243 1.223-1.59 1.52-2.03 2.588-.445 1.085.15 2.374.239 3.479.058.72.029 1.378-.401 1.984-.43.605-1.077 1.227-1.777 1.49-.552.208-1.246.008-1.578-.51-.383-.598-.158-1.361-.252-2.024-.131-.93-.098-2.078-.865-2.73a2.882 2.882 0 00-1.304-.643c-.766-.15-1.822.039-2.33-.605-.456-.576-.23-1.245.085-1.85.33-.635.727-1.294 1.145-1.877.513-.716 1.15-1.332 1.744-1.979.311-.34.64-.62 1.003-.713a.605.605 0 00.591.557c.7.044 1.165-.08 1.822-.245.704-.178 1.51-.162 2.137.204.513.3 1.087.553 1.415 1.07.313.494.47 1.233.356 1.804zM65.811 54.24c-.676-1.63-2.612-2.611-4.34-2.221-.642.144-1.028.596-1.32 1.161-.465.897-.94 1.475-1.896 1.914-.18.083-.237.27-.203.445a.3.3 0 00-.078.037c-.636.425-1.402.63-2.048 1.054-.666.437-1.333.97-1.92 1.508-1.156 1.056-1.46 2.395-.712 3.774.292.538.72 1.036 1.314 1.241.303.105.615.108.93.139.711.068 1.076.232 1.61.71.593.532 1.166.973 1.462 1.736.234.605.456 1.24 1.075 1.556 1.173.6 2.936-.382 3.864-1.093 1.367-1.047.866-2.7.136-4.01-.367-.658-1.08-1.571-.67-2.304.415-.739 1.102-1.24 1.714-1.808 1.052-.975 1.662-2.443 1.082-3.84zm-2.106 3.224c-.672.695-1.5 1.517-1.72 2.503-.228 1.02.574 2.265.822 3.226.178.69.303 1.418-.345 1.846-.464.306-1.002.595-1.53.762-.665.21-.731-.094-.95-.643a3.733 3.733 0 00-1.009-1.459c-.81-.714-1.935-1.479-3.038-1.551-.375-.025-.823.056-1.166-.14-.303-.175-.52-.541-.673-.847-.461-.924-.097-1.833.56-2.566a9.51 9.51 0 011.711-1.486c.6-.406 1.314-.615 1.9-1.03a.294.294 0 00.122-.18c1.029.245 1.943-.507 2.446-1.363.21-.358.317-.913.652-1.18.574-.456 1.819-.025 2.33.35 1.467 1.076.954 2.655-.111 3.758zM84.699 46.615c-.535-1.463-2.27-3.056-3.902-3.025-.986.02-1.811.682-2.65 1.11-.617.315-1.2.632-1.827.763-.405-.42-1.324-.557-1.822-.258-.256.154-.472.4-.713.58-.221.164-.394.362-.48.62a1.208 1.208 0 00-.11.077c-.558.446-1.04.866-1.423 1.494-.63 1.03-1.078 2.288-.854 3.51.242 1.322 1.349 2.162 2.667 2.231.4.022.804-.05 1.202-.014.57.052.538.188.6.7.092.776.307 1.579.816 2.186 1.115 1.33 2.525 1.859 4.161 1.15 1.357-.59 2.984-1.5 3.062-3.13.046-.953-.364-1.699-.612-2.587-.09-.326-.195-.842-.042-1.002.234-.246.953-.343 1.269-.565 1.285-.905 1.138-2.525.658-3.84zm-.944 2.14c-.253 1.251-1.955.832-2.194 2.1-.247 1.305 1.313 3.225.062 4.14-.864.63-2.427 1.843-3.476 1.153a3.024 3.024 0 01-1.16-1.464c-.174-.483-.225-1.062-.5-1.502-.637-1.016-1.922-.626-2.901-.582-1.938.088-2.188-1.728-1.681-3.207.203-.593.542-1.402 1.005-1.834.217-.203.454-.346.657-.549.047-.047.094-.09.14-.127.3-.107.58-.184.86-.29.086-.006.175-.01.273-.012.123-.003.179-.1.171-.193l.04-.021c.02-.011.04-.018.059-.028.228.25.416.48.797.55.659.12 1.25-.259 1.822-.527a22.438 22.438 0 001.848-.947c.798-.467 1.46-.666 2.304-.178 1.037.6 2.129 2.263 1.874 3.519zM100.934 48.98c-.136-.871-.406-1.77-.862-2.533-.443-.74-1.172-.88-1.903-1.245-1.165-.583-2.709-1.749-3.877-.77-.766-.508-1.803-.204-2.51.386-.971.81-2.273 2.118-2.451 3.435-.17 1.257 1.174 2.323 2.126 2.93.3.19.5.243.545.633.037.328-.147.725-.251 1.028-.224.654-.469 1.352-.31 2.053.246 1.09 1.313 1.466 2.328 1.439 1.362-.036 2.409-.675 3.587-1.283 1.03-.532 2.434-1.142 3.202-2.043.891-1.046.571-2.787.376-4.03zm-1.513 3.306c-.366.339-.873.526-1.298.775-1.107.645-2.353 1.557-3.618 1.834-.404.088-.903.176-1.31.066-.746-.203-.443-.975-.261-1.532.321-.984.699-2.186-.218-2.977-.369-.318-.815-.525-1.19-.846-.252-.215-.565-.43-.757-.706-.327-.471-.125-.783.14-1.215.464-.764 1.872-2.8 3.023-2.545.025.05.065.095.126.125.26.131.431.168.726.196.441.042.648.239 1.041.383.326.12.653.116.98.232.24.084.477.2.709.3.318.134.758.24 1.058.401.461.25.63.734.8 1.2.264.72.366 1.476.404 2.239.034.689.201 1.554-.355 2.07zM59.361 95.636a6.031 6.031 0 00-.743 1.592c-.155.51-.152 1.459.637 1.321.28-.049.348-.376.254-.595a.224.224 0 00.005-.031c.005-.073.023-.142.038-.213.046-.227.116-.446.189-.665.121-.365.263-.723.382-1.088.154-.47-.509-.697-.762-.321zM61.657 96.16a74.539 74.539 0 00-.157-.02c-.35-.043-.484.359-.353.62-.171.402-.46.748-.523 1.214-.052.39-.105 1.313.48 1.37.57.056.541-.749.559-1.104.028-.583.373-1.067.422-1.653.02-.25-.215-.401-.428-.427zM64.776 97.625c-.03-.233-.176-.429-.43-.431-.22-.003-.449.199-.43.43.023.3-.256.573-.392.823-.12.223-.338.45-.409.684-.033.109-.004.271.091.345.456.355.93-.065 1.114-.503.18-.43.52-.86.457-1.348zM66.36 98.232c-.027-.211-.12-.341-.319-.418a.651.651 0 00-.163-.051c-.423-.103-.628.356-.415.648-.049.17-.146.33-.179.503-.052.275-.031.58.053.845.13.409.745.44.86 0 .07-.266.033-.525.068-.791.033-.252.127-.476.095-.736zM76.59 97.98c-.026-.42-.628-.42-.654 0-.037.585-.165 1.137-.248 1.712-.077.537.67.781.835.23.09-.299.17-.578.166-.896-.006-.349-.079-.697-.1-1.046zM78.73 97.963c-.193-.374-.68-.15-.719.195.013-.115-.019.01-.037.047-.022.046-.044.092-.07.136-.058.103-.133.197-.192.3-.144.249-.255.554-.17.84.132.44.892.521.974 0 .021-.132.02-.19.05-.268.055-.139.129-.273.186-.412.12-.296.126-.55-.022-.838zM80.353 97.856c-.366-.004-.547.407-.44.69a1.374 1.374 0 00-.309.707c-.043.269-.087.677.116.892.213.225.521.115.666-.119.137-.222.237-.541.296-.742l.1-.132c.052-.07.106-.139.15-.214.296-.514.038-1.073-.579-1.082z"/></g><defs><clipPath id="bclip0_435:17"><path fill="#fff" transform="translate(39 37)" d="M0 0h73v73H0z"/></clipPath></defs></svg></svg>