<?xml version="1.0" encoding="utf-8"?><svg viewBox="0 0 66 64" xmlns="http://www.w3.org/2000/svg" xmlns:xlink="http://www.w3.org/1999/xlink"><style>:root>svg{display:none}:root>svg:target{display:block}</style><svg viewBox="0 0 57 57" id="ic-1" xmlns="http://www.w3.org/2000/svg"><path d="M36.625 48.782a21.581 21.581 0 01-3.201 1.016l-.447 5.821a1.429 1.429 0 01-1.424 1.319h-6.108a1.426 1.426 0 01-1.422-1.317l-.447-5.821a21.675 21.675 0 01-6.65-2.76l-4.438 3.804a1.426 1.426 0 01-1.938-.075L6.23 46.45a1.428 1.428 0 01-.075-1.938l3.805-4.438a21.775 21.775 0 01-2.76-6.65l-5.822-.447a1.428 1.428 0 01-1.317-1.424v-6.108c0-.745.575-1.365 1.317-1.422l5.821-.447a21.675 21.675 0 012.76-6.65l-3.802-4.438a1.425 1.425 0 01.073-1.936l4.319-4.319a1.43 1.43 0 011.938-.075l4.438 3.805a21.775 21.775 0 016.65-2.76l.447-5.822A1.429 1.429 0 0125.447.062h6.108c.745 0 1.365.575 1.422 1.317l.026.339a15.143 15.143 0 00-2.472 8.287c0 2.442.577 4.782 1.631 6.87a12.123 12.123 0 00-3.662-.563c-6.732 0-12.188 5.456-12.188 12.188S21.768 40.688 28.5 40.688c3.126 0 5.968-1.187 8.125-3.123v11.217zM50.844 19.946V51.86a5.077 5.077 0 01-5.078 5.078 5.077 5.077 0 01-5.078-5.078V19.946c-3.616-1.85-6.094-5.602-6.094-9.943 0-4.194 2.315-7.842 5.736-9.752.156-.085.358.037.358.216V12.25l5.078 2.031 5.078-2.031V.467c0-.179.2-.3.357-.214 3.42 1.91 5.736 5.556 5.736 9.752 0 4.34-2.478 8.093-6.093 9.941z" fill="inherit"/></svg><svg viewBox="0 0 66 58" id="ic-2" xmlns="http://www.w3.org/2000/svg"><path d="M12.827 57.571h40.347a3.598 3.598 0 003.526-2.908H9.3a3.597 3.597 0 003.527 2.908zM51.96 35.73h2.992a9.097 9.097 0 009.087-9.086v-7.456a.684.684 0 00-.684-.684H53.178v-1.979H40.832v5.576l2.877 3.05c.2.213.312.493.312.785v5.323a1.144 1.144 0 01-1.143 1.143h-5.46a1.144 1.144 0 01-1.142-1.143v-5.323c0-.292.111-.573.312-.785l2.877-3.05v-5.576H12.823v12.3a20.239 20.239 0 001.55 7.762v-8.234a.684.684 0 011.368 0v8.795c0 .04-.005.079-.012.117a12.403 12.403 0 014.3-1.832 13.19 13.19 0 014.376-.258.708.708 0 01.615.711.653.653 0 01-.61.643c-.175.056-1.922.756-2.399 6.147a11.01 11.01 0 01-.564 2.693 19.968 19.968 0 009.85 3.562H16.531c1.39-.62 3.756-2.271 4.119-6.375.285-3.23 1.036-5.048 1.778-6.071-.724.037-1.443.135-2.15.294-2.75.622-4.94 2.073-6.514 4.316.452.978.734 2.026.834 3.098a22.903 22.903 0 013.107-3.508.681.681 0 01.967.057.68.68 0 01.101.755.685.685 0 01-.163.212c-.025.023-2.527 2.256-4.045 5.111a.676.676 0 01-.072.107 12.035 12.035 0 01-.516 2.004H12.52c.653-1.582 1.8-5.564-1.22-9.174-1.755-2.096-2.566-3.716-2.896-4.922-1.583 2.72-3.865 7.722-2.218 11.826a4.15 4.15 0 002.208 2.27H.917a5.057 5.057 0 005.004 4.366H60.08a5.057 5.057 0 005.004-4.366H34.71a20.225 20.225 0 0017.25-13.2zm1.218-6.905v-8.953h9.494v6.772a7.728 7.728 0 01-7.72 7.72h-2.547c.514-1.802.774-3.666.773-5.539zM15.74 24.83a.684.684 0 11-1.367 0v-.834a.683.683 0 011.367 0v.834zm-6.737 24.1c-1.271-3.067-.752-7.4-.724-7.614a.684.684 0 011.356.17 20.767 20.767 0 00-.092 3.173c.088 1.805.422 3.26.972 4.27H9.004z" fill="inherit"/><path d="M37.644 31.035h5.01v-5.01l-2.505-2.656-2.505 2.656v5.01zM21.979 6.01c0 .948-.435 1.401-.985 1.974-.608.634-1.365 1.422-1.365 2.922a.684.684 0 101.367 0c0-.95.434-1.402.984-1.975.609-.634 1.366-1.422 1.366-2.922 0-1.5-.757-2.288-1.366-2.922-.55-.573-.984-1.025-.984-1.975a.684.684 0 10-1.367 0c0 1.5.757 2.288 1.365 2.922.55.573.985 1.027.985 1.975zM27.366 10.906a.684.684 0 101.367 0c0-.95.435-1.402.985-1.975.608-.634 1.366-1.422 1.366-2.922 0-1.5-.757-2.288-1.365-2.922-.55-.573-.985-1.025-.985-1.975a.684.684 0 00-1.367 0c0 1.5.757 2.288 1.366 2.922.55.573.984 1.025.984 1.975 0 .95-.434 1.402-.984 1.975-.61.634-1.367 1.423-1.367 2.922zM34.916 10.906a.684.684 0 101.367 0c0-.95.435-1.402.985-1.975.608-.634 1.365-1.422 1.365-2.922 0-1.5-.757-2.288-1.365-2.922-.55-.573-.985-1.025-.985-1.975a.684.684 0 10-1.367 0c0 1.5.757 2.288 1.366 2.922.55.573.984 1.025.984 1.975 0 .95-.434 1.402-.984 1.975-.609.634-1.366 1.423-1.366 2.922zM42.654 10.906a.684.684 0 101.367 0c0-.95.435-1.402.985-1.975.608-.634 1.365-1.422 1.365-2.922 0-1.5-.757-2.288-1.365-2.922-.55-.573-.985-1.025-.985-1.975a.684.684 0 10-1.367 0c0 1.5.757 2.288 1.366 2.922.55.573.984 1.025.984 1.975 0 .95-.434 1.402-.984 1.975-.609.634-1.366 1.423-1.366 2.922z" fill="inherit"/></svg><svg viewBox="0 0 58 64" id="ic-3" xmlns="http://www.w3.org/2000/svg"><path d="M47.787 11.271H44.03a1.878 1.878 0 100 3.758h3.757a1.878 1.878 0 100-3.758zM28.802 4.795l-1.879-3.757a1.879 1.879 0 10-3.361 1.68l1.879 3.757a1.88 1.88 0 003.36-1.68zM41.113.197a1.883 1.883 0 00-2.521.84l-1.879 3.758a1.879 1.879 0 103.361 1.68l1.879-3.757a1.879 1.879 0 00-.84-2.52zM21.485 11.271h-3.757a1.878 1.878 0 100 3.758h3.757a1.878 1.878 0 100-3.758zM10.213 30.183H2.698a1.879 1.879 0 00-1.879 1.88V62.12C.82 63.16 1.66 64 2.7 64h7.514a1.879 1.879 0 001.879-1.879V32.062a1.879 1.879 0 00-1.88-1.879zM57.143 35.163c-.331-2.914-3.054-4.98-5.987-4.98H36.51c1.245-2.228 1.913-8.532 1.883-11.108-.049-4.262-3.579-7.678-7.842-7.678H29c-1.038 0-1.879.84-1.879 1.878 0 4.345-1.691 12.186-4.882 15.377-2.147 2.147-3.983 2.925-6.39 4.128v28.19C19.535 62.198 24.214 64 31.346 64h12.29c4.049 0 7.202-3.75 5.633-7.713a5.646 5.646 0 004.154-5.438 5.63 5.63 0 00-.396-2.077c4.028-1.097 5.511-6.072 2.715-9.195a5.624 5.624 0 001.4-4.414z" fill="inherit"/></svg><svg viewBox="0 0 61 62" id="ic-4" xmlns="http://www.w3.org/2000/svg"><path d="M21.64 49.203h1.97v1.969h-1.97v-1.969z" fill="inherit"/><path d="M54.125 59.047V23.324L30.5 7.285 6.875 23.324V33.83a3.43 3.43 0 013.193 2.155c2.453 6.066 3.698 10.182 3.698 12.234 0 4.105-2.48 7.277-5.907 7.793v-1.995c2.247-.5 3.938-2.703 3.938-5.798 0-2.308-2.098-7.895-3.555-11.497-.498-1.231-2.237-1.231-2.735 0-1.456 3.602-3.554 9.19-3.554 11.497 0 3.096 1.691 5.299 3.938 5.798v5.03H.969v1.969H60.03v-1.97h-5.906zM40.344 46.25l1.968-2.953 1.97 2.953v2.953h3.937V46.25l1.968-2.953 1.97 2.953v12.797h-3.938V53.14H44.28v5.906h-3.937V53.14h-3.938v5.906H32.47V46.25l1.968-2.953 1.97 2.953v2.953h3.937V46.25zm-8.86-19.688h4.922v1.97a2.953 2.953 0 01-2.953 2.952h-1.969v-4.922zm1.97-6.89a2.953 2.953 0 012.952 2.953v1.969h-4.922v-4.922h1.97zm-8.86 2.953a2.953 2.953 0 012.953-2.953h1.969v4.922h-4.922v-1.969zm0 3.938h4.922v4.921h-1.97a2.953 2.953 0 01-2.952-2.953v-1.968zm1.968 13.78v18.704H15.735V40.344h10.829z" fill="inherit"/><path d="M30.5 5.317L56.957 23.27l2.21-3.26L30.5.558 1.832 20.011l2.21 3.259L30.5 5.317z" fill="inherit"/></svg></svg>